  0
SECTION
  2
BLOCKS
  0
ENDSEC
  0
SECTION
  2
ENTITIES
  0
LINE
  8
0
 10
-15.5488
 20
-37.3025
 11
-15.185
 21
-37.1615
  0
LINE
  8
0
 10
-15.185
 20
-37.1615
 11
-14.8557
 21
-36.9523
  0
LINE
  8
0
 10
-14.8557
 20
-36.9523
 11
-14.5734
 21
-36.6828
  0
LINE
  8
0
 10
-14.5734
 20
-36.6828
 11
-14.3692
 21
-36.392
  0
LINE
  8
0
 10
-14.3692
 20
-36.392
 11
-14.1115
 21
-35.7494
  0
LINE
  8
0
 10
-14.1115
 20
-35.7494
 11
-7.59241
 21
-10.1137
  0
LINE
  8
0
 10
-7.59241
 20
-10.1137
 11
-7.5
 21
-9.37537
  0
LINE
  8
0
 10
-7.5
 20
-9.37537
 11
-7.5
 21
47.4017
  0
LINE
  8
0
 10
-7.5
 20
47.4017
 11
-7.54791
 21
47.8883
  0
LINE
  8
0
 10
-7.54791
 20
47.8883
 11
-7.66119
 21
48.2617
  0
LINE
  8
0
 10
-7.66119
 20
48.2617
 11
-7.84512
 21
48.6058
  0
LINE
  8
0
 10
-7.84512
 20
48.6058
 11
-8.09262
 21
48.9074
  0
LINE
  8
0
 10
-8.09262
 20
48.9074
 11
-8.39421
 21
49.1549
  0
LINE
  8
0
 10
-8.39421
 20
49.1549
 11
-8.73833
 21
49.3388
  0
LINE
  8
0
 10
-8.73833
 20
49.3388
 11
-9.11174
 21
49.4521
  0
LINE
  8
0
 10
-9.11174
 20
49.4521
 11
-9.59827
 21
49.5
  0
LINE
  8
0
 10
-9.59827
 20
49.5
 11
-123.402
 21
49.5
  0
LINE
  8
0
 10
-123.402
 20
49.5
 11
-123.888
 21
49.4521
  0
LINE
  8
0
 10
-123.888
 20
49.4521
 11
-124.262
 21
49.3388
  0
LINE
  8
0
 10
-124.262
 20
49.3388
 11
-124.606
 21
49.1549
  0
LINE
  8
0
 10
-124.606
 20
49.1549
 11
-124.907
 21
48.9074
  0
LINE
  8
0
 10
-124.907
 20
48.9074
 11
-125.155
 21
48.6058
  0
LINE
  8
0
 10
-125.155
 20
48.6058
 11
-125.339
 21
48.2617
  0
LINE
  8
0
 10
-125.339
 20
48.2617
 11
-125.452
 21
47.8883
  0
LINE
  8
0
 10
-125.452
 20
47.8883
 11
-125.5
 21
47.4017
  0
LINE
  8
0
 10
-125.5
 20
47.4017
 11
-125.5
 21
-9.40173
  0
LINE
  8
0
 10
-125.5
 20
-9.40173
 11
-125.452
 21
-9.88826
  0
LINE
  8
0
 10
-125.452
 20
-9.88826
 11
-125.339
 21
-10.2617
  0
LINE
  8
0
 10
-125.339
 20
-10.2617
 11
-125.155
 21
-10.6058
  0
LINE
  8
0
 10
-125.155
 20
-10.6058
 11
-124.907
 21
-10.9074
  0
LINE
  8
0
 10
-124.907
 20
-10.9074
 11
-124.606
 21
-11.1549
  0
LINE
  8
0
 10
-124.606
 20
-11.1549
 11
-124.262
 21
-11.3388
  0
LINE
  8
0
 10
-124.262
 20
-11.3388
 11
-123.888
 21
-11.4521
  0
LINE
  8
0
 10
-123.888
 20
-11.4521
 11
-123.402
 21
-11.5
  0
LINE
  8
0
 10
-123.402
 20
-11.5
 11
-77.7695
 21
-11.5
  0
LINE
  8
0
 10
-77.7695
 20
-11.5
 11
-77.3793
 21
-11.5384
  0
LINE
  8
0
 10
-77.3793
 20
-11.5384
 11
-77.0041
 21
-11.6522
  0
LINE
  8
0
 10
-77.0041
 20
-11.6522
 11
-76.6583
 21
-11.8371
  0
LINE
  8
0
 10
-76.6583
 20
-11.8371
 11
-76.2896
 21
-12.1546
  0
LINE
  8
0
 10
-76.2896
 20
-12.1546
 11
-58.546
 21
-31.6726
  0
LINE
  8
0
 10
-58.546
 20
-31.6726
 11
-58.1832
 21
-32.0004
  0
LINE
  8
0
 10
-58.1832
 20
-32.0004
 11
-57.8483
 21
-32.2005
  0
LINE
  8
0
 10
-57.8483
 20
-32.2005
 11
-57.4457
 21
-32.3438
  0
LINE
  8
0
 10
-57.4457
 20
-32.3438
 11
-57.1809
 21
-32.3927
  0
LINE
  8
0
 10
-57.1809
 20
-32.3927
 11
-16.4218
 21
-37.3585
  0
LINE
  8
0
 10
-16.4218
 20
-37.3585
 11
-15.9332
 21
-37.3698
  0
LINE
  8
0
 10
-15.9332
 20
-37.3698
 11
-15.5488
 21
-37.3025
  0
LINE
  8
0
 10
-104.715
 20
36.9211
 11
-104.921
 21
36.9837
  0
LINE
  8
0
 10
-104.921
 20
36.9837
 11
-105.111
 21
37.0854
  0
LINE
  8
0
 10
-105.111
 20
37.0854
 11
-105.278
 21
37.2222
  0
LINE
  8
0
 10
-105.278
 20
37.2222
 11
-105.415
 21
37.3889
  0
LINE
  8
0
 10
-105.415
 20
37.3889
 11
-105.516
 21
37.579
  0
LINE
  8
0
 10
-105.516
 20
37.579
 11
-105.579
 21
37.7854
  0
LINE
  8
0
 10
-105.579
 20
37.7854
 11
-105.6
 21
38
  0
LINE
  8
0
 10
-105.6
 20
38
 11
-105.579
 21
38.2146
  0
LINE
  8
0
 10
-105.579
 20
38.2146
 11
-105.516
 21
38.4209
  0
LINE
  8
0
 10
-105.516
 20
38.4209
 11
-105.415
 21
38.6111
  0
LINE
  8
0
 10
-105.415
 20
38.6111
 11
-105.278
 21
38.7778
  0
LINE
  8
0
 10
-105.278
 20
38.7778
 11
-105.111
 21
38.9146
  0
LINE
  8
0
 10
-105.111
 20
38.9146
 11
-104.921
 21
39.0163
  0
LINE
  8
0
 10
-104.921
 20
39.0163
 11
-104.715
 21
39.0789
  0
LINE
  8
0
 10
-104.715
 20
39.0789
 11
-104.5
 21
39.1
  0
LINE
  8
0
 10
-104.5
 20
39.1
 11
-104.285
 21
39.0789
  0
LINE
  8
0
 10
-104.285
 20
39.0789
 11
-104.079
 21
39.0163
  0
LINE
  8
0
 10
-104.079
 20
39.0163
 11
-103.889
 21
38.9146
  0
LINE
  8
0
 10
-103.889
 20
38.9146
 11
-103.722
 21
38.7778
  0
LINE
  8
0
 10
-103.722
 20
38.7778
 11
-103.585
 21
38.6111
  0
LINE
  8
0
 10
-103.585
 20
38.6111
 11
-103.484
 21
38.4209
  0
LINE
  8
0
 10
-103.484
 20
38.4209
 11
-103.421
 21
38.2146
  0
LINE
  8
0
 10
-103.421
 20
38.2146
 11
-103.4
 21
38
  0
LINE
  8
0
 10
-103.4
 20
38
 11
-103.421
 21
37.7854
  0
LINE
  8
0
 10
-103.421
 20
37.7854
 11
-103.484
 21
37.579
  0
LINE
  8
0
 10
-103.484
 20
37.579
 11
-103.585
 21
37.3889
  0
LINE
  8
0
 10
-103.585
 20
37.3889
 11
-103.722
 21
37.2222
  0
LINE
  8
0
 10
-103.722
 20
37.2222
 11
-103.889
 21
37.0854
  0
LINE
  8
0
 10
-103.889
 20
37.0854
 11
-104.079
 21
36.9837
  0
LINE
  8
0
 10
-104.079
 20
36.9837
 11
-104.285
 21
36.9211
  0
LINE
  8
0
 10
-104.285
 20
36.9211
 11
-104.5
 21
36.9
  0
LINE
  8
0
 10
-104.5
 20
36.9
 11
-104.715
 21
36.9211
  0
LINE
  8
0
 10
-28.7146
 20
36.9211
 11
-28.9209
 21
36.9837
  0
LINE
  8
0
 10
-28.9209
 20
36.9837
 11
-29.1111
 21
37.0854
  0
LINE
  8
0
 10
-29.1111
 20
37.0854
 11
-29.2778
 21
37.2222
  0
LINE
  8
0
 10
-29.2778
 20
37.2222
 11
-29.4146
 21
37.3889
  0
LINE
  8
0
 10
-29.4146
 20
37.3889
 11
-29.5163
 21
37.579
  0
LINE
  8
0
 10
-29.5163
 20
37.579
 11
-29.5789
 21
37.7854
  0
LINE
  8
0
 10
-29.5789
 20
37.7854
 11
-29.6
 21
38
  0
LINE
  8
0
 10
-29.6
 20
38
 11
-29.5789
 21
38.2146
  0
LINE
  8
0
 10
-29.5789
 20
38.2146
 11
-29.5163
 21
38.4209
  0
LINE
  8
0
 10
-29.5163
 20
38.4209
 11
-29.4146
 21
38.6111
  0
LINE
  8
0
 10
-29.4146
 20
38.6111
 11
-29.2778
 21
38.7778
  0
LINE
  8
0
 10
-29.2778
 20
38.7778
 11
-29.1111
 21
38.9146
  0
LINE
  8
0
 10
-29.1111
 20
38.9146
 11
-28.9209
 21
39.0163
  0
LINE
  8
0
 10
-28.9209
 20
39.0163
 11
-28.7146
 21
39.0789
  0
LINE
  8
0
 10
-28.7146
 20
39.0789
 11
-28.5
 21
39.1
  0
LINE
  8
0
 10
-28.5
 20
39.1
 11
-28.2854
 21
39.0789
  0
LINE
  8
0
 10
-28.2854
 20
39.0789
 11
-28.079
 21
39.0163
  0
LINE
  8
0
 10
-28.079
 20
39.0163
 11
-27.8889
 21
38.9146
  0
LINE
  8
0
 10
-27.8889
 20
38.9146
 11
-27.7222
 21
38.7778
  0
LINE
  8
0
 10
-27.7222
 20
38.7778
 11
-27.5854
 21
38.6111
  0
LINE
  8
0
 10
-27.5854
 20
38.6111
 11
-27.4837
 21
38.4209
  0
LINE
  8
0
 10
-27.4837
 20
38.4209
 11
-27.4211
 21
38.2146
  0
LINE
  8
0
 10
-27.4211
 20
38.2146
 11
-27.4
 21
38
  0
LINE
  8
0
 10
-27.4
 20
38
 11
-27.4211
 21
37.7854
  0
LINE
  8
0
 10
-27.4211
 20
37.7854
 11
-27.4837
 21
37.579
  0
LINE
  8
0
 10
-27.4837
 20
37.579
 11
-27.5854
 21
37.3889
  0
LINE
  8
0
 10
-27.5854
 20
37.3889
 11
-27.7222
 21
37.2222
  0
LINE
  8
0
 10
-27.7222
 20
37.2222
 11
-27.8889
 21
37.0854
  0
LINE
  8
0
 10
-27.8889
 20
37.0854
 11
-28.079
 21
36.9837
  0
LINE
  8
0
 10
-28.079
 20
36.9837
 11
-28.2854
 21
36.9211
  0
LINE
  8
0
 10
-28.2854
 20
36.9211
 11
-28.5
 21
36.9
  0
LINE
  8
0
 10
-28.5
 20
36.9
 11
-28.7146
 21
36.9211
  0
LINE
  8
0
 10
-104.715
 20
-1.07886
 11
-104.921
 21
-1.01627
  0
LINE
  8
0
 10
-104.921
 20
-1.01627
 11
-105.111
 21
-0.914612
  0
LINE
  8
0
 10
-105.111
 20
-0.914612
 11
-105.278
 21
-0.777817
  0
LINE
  8
0
 10
-105.278
 20
-0.777817
 11
-105.415
 21
-0.611115
  0
LINE
  8
0
 10
-105.415
 20
-0.611115
 11
-105.516
 21
-0.420944
  0
LINE
  8
0
 10
-105.516
 20
-0.420944
 11
-105.579
 21
-0.214584
  0
LINE
  8
0
 10
-105.579
 20
-0.214584
 11
-105.6
 21
0
  0
LINE
  8
0
 10
-105.6
 20
0
 11
-105.579
 21
0.214584
  0
LINE
  8
0
 10
-105.579
 20
0.214584
 11
-105.516
 21
0.420944
  0
LINE
  8
0
 10
-105.516
 20
0.420944
 11
-105.415
 21
0.611115
  0
LINE
  8
0
 10
-105.415
 20
0.611115
 11
-105.278
 21
0.777817
  0
LINE
  8
0
 10
-105.278
 20
0.777817
 11
-105.111
 21
0.914612
  0
LINE
  8
0
 10
-105.111
 20
0.914612
 11
-104.921
 21
1.01627
  0
LINE
  8
0
 10
-104.921
 20
1.01627
 11
-104.715
 21
1.07886
  0
LINE
  8
0
 10
-104.715
 20
1.07886
 11
-104.5
 21
1.09999
  0
LINE
  8
0
 10
-104.5
 20
1.09999
 11
-104.285
 21
1.07886
  0
LINE
  8
0
 10
-104.285
 20
1.07886
 11
-104.079
 21
1.01627
  0
LINE
  8
0
 10
-104.079
 20
1.01627
 11
-103.889
 21
0.914612
  0
LINE
  8
0
 10
-103.889
 20
0.914612
 11
-103.722
 21
0.777817
  0
LINE
  8
0
 10
-103.722
 20
0.777817
 11
-103.585
 21
0.611115
  0
LINE
  8
0
 10
-103.585
 20
0.611115
 11
-103.484
 21
0.420944
  0
LINE
  8
0
 10
-103.484
 20
0.420944
 11
-103.421
 21
0.214584
  0
LINE
  8
0
 10
-103.421
 20
0.214584
 11
-103.4
 21
0
  0
LINE
  8
0
 10
-103.4
 20
0
 11
-103.421
 21
-0.214584
  0
LINE
  8
0
 10
-103.421
 20
-0.214584
 11
-103.484
 21
-0.420944
  0
LINE
  8
0
 10
-103.484
 20
-0.420944
 11
-103.585
 21
-0.611115
  0
LINE
  8
0
 10
-103.585
 20
-0.611115
 11
-103.722
 21
-0.777817
  0
LINE
  8
0
 10
-103.722
 20
-0.777817
 11
-103.889
 21
-0.914612
  0
LINE
  8
0
 10
-103.889
 20
-0.914612
 11
-104.079
 21
-1.01627
  0
LINE
  8
0
 10
-104.079
 20
-1.01627
 11
-104.285
 21
-1.07886
  0
LINE
  8
0
 10
-104.285
 20
-1.07886
 11
-104.5
 21
-1.09999
  0
LINE
  8
0
 10
-104.5
 20
-1.09999
 11
-104.715
 21
-1.07886
  0
LINE
  8
0
 10
-13.2146
 20
-14.0789
 11
-13.4209
 21
-14.0163
  0
LINE
  8
0
 10
-13.4209
 20
-14.0163
 11
-13.6111
 21
-13.9146
  0
LINE
  8
0
 10
-13.6111
 20
-13.9146
 11
-13.7778
 21
-13.7778
  0
LINE
  8
0
 10
-13.7778
 20
-13.7778
 11
-13.9146
 21
-13.6111
  0
LINE
  8
0
 10
-13.9146
 20
-13.6111
 11
-14.0163
 21
-13.4209
  0
LINE
  8
0
 10
-14.0163
 20
-13.4209
 11
-14.0789
 21
-13.2146
  0
LINE
  8
0
 10
-14.0789
 20
-13.2146
 11
-14.1
 21
-13
  0
LINE
  8
0
 10
-14.1
 20
-13
 11
-14.0789
 21
-12.7854
  0
LINE
  8
0
 10
-14.0789
 20
-12.7854
 11
-14.0163
 21
-12.579
  0
LINE
  8
0
 10
-14.0163
 20
-12.579
 11
-13.9146
 21
-12.3889
  0
LINE
  8
0
 10
-13.9146
 20
-12.3889
 11
-13.7778
 21
-12.2222
  0
LINE
  8
0
 10
-13.7778
 20
-12.2222
 11
-13.6111
 21
-12.0854
  0
LINE
  8
0
 10
-13.6111
 20
-12.0854
 11
-13.4209
 21
-11.9837
  0
LINE
  8
0
 10
-13.4209
 20
-11.9837
 11
-13.2146
 21
-11.9211
  0
LINE
  8
0
 10
-13.2146
 20
-11.9211
 11
-13
 21
-11.9
  0
LINE
  8
0
 10
-13
 20
-11.9
 11
-12.7854
 21
-11.9211
  0
LINE
  8
0
 10
-12.7854
 20
-11.9211
 11
-12.579
 21
-11.9837
  0
LINE
  8
0
 10
-12.579
 20
-11.9837
 11
-12.3889
 21
-12.0854
  0
LINE
  8
0
 10
-12.3889
 20
-12.0854
 11
-12.2222
 21
-12.2222
  0
LINE
  8
0
 10
-12.2222
 20
-12.2222
 11
-12.0854
 21
-12.3889
  0
LINE
  8
0
 10
-12.0854
 20
-12.3889
 11
-11.9837
 21
-12.579
  0
LINE
  8
0
 10
-11.9837
 20
-12.579
 11
-11.9211
 21
-12.7854
  0
LINE
  8
0
 10
-11.9211
 20
-12.7854
 11
-11.9
 21
-13
  0
LINE
  8
0
 10
-11.9
 20
-13
 11
-11.9211
 21
-13.2146
  0
LINE
  8
0
 10
-11.9211
 20
-13.2146
 11
-11.9837
 21
-13.4209
  0
LINE
  8
0
 10
-11.9837
 20
-13.4209
 11
-12.0854
 21
-13.6111
  0
LINE
  8
0
 10
-12.0854
 20
-13.6111
 11
-12.2222
 21
-13.7778
  0
LINE
  8
0
 10
-12.2222
 20
-13.7778
 11
-12.3889
 21
-13.9146
  0
LINE
  8
0
 10
-12.3889
 20
-13.9146
 11
-12.579
 21
-14.0163
  0
LINE
  8
0
 10
-12.579
 20
-14.0163
 11
-12.7854
 21
-14.0789
  0
LINE
  8
0
 10
-12.7854
 20
-14.0789
 11
-13
 21
-14.1
  0
LINE
  8
0
 10
-13
 20
-14.1
 11
-13.2146
 21
-14.0789
  0
LINE
  8
0
 10
-68.2146
 20
-14.0789
 11
-68.4209
 21
-14.0163
  0
LINE
  8
0
 10
-68.4209
 20
-14.0163
 11
-68.6111
 21
-13.9146
  0
LINE
  8
0
 10
-68.6111
 20
-13.9146
 11
-68.7778
 21
-13.7778
  0
LINE
  8
0
 10
-68.7778
 20
-13.7778
 11
-68.9146
 21
-13.6111
  0
LINE
  8
0
 10
-68.9146
 20
-13.6111
 11
-69.0163
 21
-13.4209
  0
LINE
  8
0
 10
-69.0163
 20
-13.4209
 11
-69.0789
 21
-13.2146
  0
LINE
  8
0
 10
-69.0789
 20
-13.2146
 11
-69.1
 21
-13
  0
LINE
  8
0
 10
-69.1
 20
-13
 11
-69.0789
 21
-12.7854
  0
LINE
  8
0
 10
-69.0789
 20
-12.7854
 11
-69.0163
 21
-12.579
  0
LINE
  8
0
 10
-69.0163
 20
-12.579
 11
-68.9146
 21
-12.3889
  0
LINE
  8
0
 10
-68.9146
 20
-12.3889
 11
-68.7778
 21
-12.2222
  0
LINE
  8
0
 10
-68.7778
 20
-12.2222
 11
-68.6111
 21
-12.0854
  0
LINE
  8
0
 10
-68.6111
 20
-12.0854
 11
-68.4209
 21
-11.9837
  0
LINE
  8
0
 10
-68.4209
 20
-11.9837
 11
-68.2146
 21
-11.9211
  0
LINE
  8
0
 10
-68.2146
 20
-11.9211
 11
-68
 21
-11.9
  0
LINE
  8
0
 10
-68
 20
-11.9
 11
-67.7854
 21
-11.9211
  0
LINE
  8
0
 10
-67.7854
 20
-11.9211
 11
-67.579
 21
-11.9837
  0
LINE
  8
0
 10
-67.579
 20
-11.9837
 11
-67.3889
 21
-12.0854
  0
LINE
  8
0
 10
-67.3889
 20
-12.0854
 11
-67.2222
 21
-12.2222
  0
LINE
  8
0
 10
-67.2222
 20
-12.2222
 11
-67.0854
 21
-12.3889
  0
LINE
  8
0
 10
-67.0854
 20
-12.3889
 11
-66.9837
 21
-12.579
  0
LINE
  8
0
 10
-66.9837
 20
-12.579
 11
-66.9211
 21
-12.7854
  0
LINE
  8
0
 10
-66.9211
 20
-12.7854
 11
-66.9
 21
-13
  0
LINE
  8
0
 10
-66.9
 20
-13
 11
-66.9211
 21
-13.2146
  0
LINE
  8
0
 10
-66.9211
 20
-13.2146
 11
-66.9837
 21
-13.4209
  0
LINE
  8
0
 10
-66.9837
 20
-13.4209
 11
-67.0854
 21
-13.6111
  0
LINE
  8
0
 10
-67.0854
 20
-13.6111
 11
-67.2222
 21
-13.7778
  0
LINE
  8
0
 10
-67.2222
 20
-13.7778
 11
-67.3889
 21
-13.9146
  0
LINE
  8
0
 10
-67.3889
 20
-13.9146
 11
-67.579
 21
-14.0163
  0
LINE
  8
0
 10
-67.579
 20
-14.0163
 11
-67.7854
 21
-14.0789
  0
LINE
  8
0
 10
-67.7854
 20
-14.0789
 11
-68
 21
-14.1
  0
LINE
  8
0
 10
-68
 20
-14.1
 11
-68.2146
 21
-14.0789
  0
LINE
  8
0
 10
-37.2146
 20
-32.0789
 11
-37.4209
 21
-32.0163
  0
LINE
  8
0
 10
-37.4209
 20
-32.0163
 11
-37.6111
 21
-31.9146
  0
LINE
  8
0
 10
-37.6111
 20
-31.9146
 11
-37.7778
 21
-31.7778
  0
LINE
  8
0
 10
-37.7778
 20
-31.7778
 11
-37.9146
 21
-31.6111
  0
LINE
  8
0
 10
-37.9146
 20
-31.6111
 11
-38.0163
 21
-31.4209
  0
LINE
  8
0
 10
-38.0163
 20
-31.4209
 11
-38.0789
 21
-31.2146
  0
LINE
  8
0
 10
-38.0789
 20
-31.2146
 11
-38.1
 21
-31
  0
LINE
  8
0
 10
-38.1
 20
-31
 11
-38.0789
 21
-30.7854
  0
LINE
  8
0
 10
-38.0789
 20
-30.7854
 11
-38.0163
 21
-30.579
  0
LINE
  8
0
 10
-38.0163
 20
-30.579
 11
-37.9146
 21
-30.3889
  0
LINE
  8
0
 10
-37.9146
 20
-30.3889
 11
-37.7778
 21
-30.2222
  0
LINE
  8
0
 10
-37.7778
 20
-30.2222
 11
-37.6111
 21
-30.0854
  0
LINE
  8
0
 10
-37.6111
 20
-30.0854
 11
-37.4209
 21
-29.9837
  0
LINE
  8
0
 10
-37.4209
 20
-29.9837
 11
-37.2146
 21
-29.9211
  0
LINE
  8
0
 10
-37.2146
 20
-29.9211
 11
-37
 21
-29.9
  0
LINE
  8
0
 10
-37
 20
-29.9
 11
-36.7854
 21
-29.9211
  0
LINE
  8
0
 10
-36.7854
 20
-29.9211
 11
-36.579
 21
-29.9837
  0
LINE
  8
0
 10
-36.579
 20
-29.9837
 11
-36.3889
 21
-30.0854
  0
LINE
  8
0
 10
-36.3889
 20
-30.0854
 11
-36.2222
 21
-30.2222
  0
LINE
  8
0
 10
-36.2222
 20
-30.2222
 11
-36.0854
 21
-30.3889
  0
LINE
  8
0
 10
-36.0854
 20
-30.3889
 11
-35.9837
 21
-30.579
  0
LINE
  8
0
 10
-35.9837
 20
-30.579
 11
-35.9211
 21
-30.7854
  0
LINE
  8
0
 10
-35.9211
 20
-30.7854
 11
-35.9
 21
-31
  0
LINE
  8
0
 10
-35.9
 20
-31
 11
-35.9211
 21
-31.2146
  0
LINE
  8
0
 10
-35.9211
 20
-31.2146
 11
-35.9837
 21
-31.4209
  0
LINE
  8
0
 10
-35.9837
 20
-31.4209
 11
-36.0854
 21
-31.6111
  0
LINE
  8
0
 10
-36.0854
 20
-31.6111
 11
-36.2222
 21
-31.7778
  0
LINE
  8
0
 10
-36.2222
 20
-31.7778
 11
-36.3889
 21
-31.9146
  0
LINE
  8
0
 10
-36.3889
 20
-31.9146
 11
-36.579
 21
-32.0163
  0
LINE
  8
0
 10
-36.579
 20
-32.0163
 11
-36.7854
 21
-32.0789
  0
LINE
  8
0
 10
-36.7854
 20
-32.0789
 11
-37
 21
-32.1
  0
LINE
  8
0
 10
-37
 20
-32.1
 11
-37.2146
 21
-32.0789
  0
ENDSEC
  0
SECTION
  2
OBJECTS
  0
DICTIONARY
  0
ENDSEC
  0
EOF
