  0
SECTION
  2
BLOCKS
  0
ENDSEC
  0
SECTION
  2
ENTITIES
  0
LINE
  8
0
 10
-15.4992
 20
-37.2866
 11
-15.1166
 21
-37.1238
  0
LINE
  8
0
 10
-15.1166
 20
-37.1238
 11
-14.7626
 21
-36.8754
  0
LINE
  8
0
 10
-14.7626
 20
-36.8754
 11
-14.469
 21
-36.5701
  0
LINE
  8
0
 10
-14.469
 20
-36.5701
 11
5.10722
 21
-12.246
  0
LINE
  8
0
 10
5.10722
 20
-12.246
 11
5.40198
 21
-11.9495
  0
LINE
  8
0
 10
5.40198
 20
-11.9495
 11
5.75195
 21
-11.7207
  0
LINE
  8
0
 10
5.75195
 20
-11.7207
 11
6.14185
 21
-11.5697
  0
LINE
  8
0
 10
6.14185
 20
-11.5697
 11
6.6653
 21
-11.5
  0
LINE
  8
0
 10
6.6653
 20
-11.5
 11
14.1452
 21
-11.5
  0
LINE
  8
0
 10
14.1452
 20
-11.5
 11
14.6636
 21
-11.4455
  0
LINE
  8
0
 10
14.6636
 20
-11.4455
 11
15.0589
 21
-11.317
  0
LINE
  8
0
 10
15.0589
 20
-11.317
 11
15.4191
 21
-11.1091
  0
LINE
  8
0
 10
15.4191
 20
-11.1091
 11
15.7281
 21
-10.8309
  0
LINE
  8
0
 10
15.7281
 20
-10.8309
 11
15.9725
 21
-10.4945
  0
LINE
  8
0
 10
15.9725
 20
-10.4945
 11
16.1201
 21
-10.1631
  0
LINE
  8
0
 10
16.1201
 20
-10.1631
 11
16.25
 21
-9.34264
  0
LINE
  8
0
 10
16.25
 20
-9.34264
 11
16.25
 21
-4.14999
  0
LINE
  8
0
 10
16.25
 20
-4.14999
 11
5.34999
 21
-4.14999
  0
LINE
  8
0
 10
5.34999
 20
-4.14999
 11
5.34999
 21
9.84999
  0
LINE
  8
0
 10
5.34999
 20
9.84999
 11
16.25
 21
9.84999
  0
LINE
  8
0
 10
16.25
 20
9.84999
 11
16.25
 21
47.3952
  0
LINE
  8
0
 10
16.25
 20
47.3952
 11
16.1955
 21
47.9136
  0
LINE
  8
0
 10
16.1955
 20
47.9136
 11
16.067
 21
48.3089
  0
LINE
  8
0
 10
16.067
 20
48.3089
 11
15.8591
 21
48.6691
  0
LINE
  8
0
 10
15.8591
 20
48.6691
 11
15.5809
 21
48.9781
  0
LINE
  8
0
 10
15.5809
 20
48.9781
 11
15.2445
 21
49.2225
  0
LINE
  8
0
 10
15.2445
 20
49.2225
 11
14.9131
 21
49.3701
  0
LINE
  8
0
 10
14.9131
 20
49.3701
 11
14.0926
 21
49.5
  0
LINE
  8
0
 10
14.0926
 20
49.5
 11
-123.395
 21
49.5
  0
LINE
  8
0
 10
-123.395
 20
49.5
 11
-123.914
 21
49.4455
  0
LINE
  8
0
 10
-123.914
 20
49.4455
 11
-124.309
 21
49.317
  0
LINE
  8
0
 10
-124.309
 20
49.317
 11
-124.669
 21
49.1091
  0
LINE
  8
0
 10
-124.669
 20
49.1091
 11
-124.978
 21
48.8309
  0
LINE
  8
0
 10
-124.978
 20
48.8309
 11
-125.222
 21
48.4945
  0
LINE
  8
0
 10
-125.222
 20
48.4945
 11
-125.37
 21
48.1631
  0
LINE
  8
0
 10
-125.37
 20
48.1631
 11
-125.5
 21
47.3426
  0
LINE
  8
0
 10
-125.5
 20
47.3426
 11
-125.5
 21
-9.3952
  0
LINE
  8
0
 10
-125.5
 20
-9.3952
 11
-125.446
 21
-9.91356
  0
LINE
  8
0
 10
-125.446
 20
-9.91356
 11
-125.317
 21
-10.3089
  0
LINE
  8
0
 10
-125.317
 20
-10.3089
 11
-125.109
 21
-10.6691
  0
LINE
  8
0
 10
-125.109
 20
-10.6691
 11
-124.831
 21
-10.9781
  0
LINE
  8
0
 10
-124.831
 20
-10.9781
 11
-124.495
 21
-11.2225
  0
LINE
  8
0
 10
-124.495
 20
-11.2225
 11
-124.163
 21
-11.3701
  0
LINE
  8
0
 10
-124.163
 20
-11.3701
 11
-123.343
 21
-11.5
  0
LINE
  8
0
 10
-123.343
 20
-11.5
 11
-77.7695
 21
-11.5
  0
LINE
  8
0
 10
-77.7695
 20
-11.5
 11
-77.3537
 21
-11.5437
  0
LINE
  8
0
 10
-77.3537
 20
-11.5437
 11
-76.956
 21
-11.6729
  0
LINE
  8
0
 10
-76.956
 20
-11.6729
 11
-76.5939
 21
-11.882
  0
LINE
  8
0
 10
-76.5939
 20
-11.882
 11
-76.2896
 21
-12.1546
  0
LINE
  8
0
 10
-76.2896
 20
-12.1546
 11
-58.5504
 21
-31.6678
  0
LINE
  8
0
 10
-58.5504
 20
-31.6678
 11
-58.1614
 21
-32.0147
  0
LINE
  8
0
 10
-58.1614
 20
-32.0147
 11
-57.837
 21
-32.1999
  0
LINE
  8
0
 10
-57.837
 20
-32.1999
 11
-57.0963
 21
-32.403
  0
LINE
  8
0
 10
-57.0963
 20
-32.403
 11
-16.4284
 21
-37.3577
  0
LINE
  8
0
 10
-16.4284
 20
-37.3577
 11
-15.9073
 21
-37.3663
  0
LINE
  8
0
 10
-15.9073
 20
-37.3663
 11
-15.4992
 21
-37.2866
  0
LINE
  8
0
 10
-26.5
 20
30.5
 11
-26.5
 21
45.5
  0
LINE
  8
0
 10
-26.5
 20
45.5
 11
-11.5
 21
45.5
  0
LINE
  8
0
 10
-11.5
 20
45.5
 11
-11.5
 21
30.5
  0
LINE
  8
0
 10
-11.5
 20
30.5
 11
-26.5
 21
30.5
  0
LINE
  8
0
 10
-121.5
 20
30.5
 11
-121.5
 21
45.5
  0
LINE
  8
0
 10
-121.5
 20
45.5
 11
-106.5
 21
45.5
  0
LINE
  8
0
 10
-106.5
 20
45.5
 11
-106.5
 21
30.5
  0
LINE
  8
0
 10
-106.5
 20
30.5
 11
-121.5
 21
30.5
  0
LINE
  8
0
 10
-102.5
 20
30.5
 11
-102.5
 21
45.5
  0
LINE
  8
0
 10
-102.5
 20
45.5
 11
-87.5
 21
45.5
  0
LINE
  8
0
 10
-87.5
 20
45.5
 11
-87.5
 21
30.5
  0
LINE
  8
0
 10
-87.5
 20
30.5
 11
-102.5
 21
30.5
  0
LINE
  8
0
 10
-83.5
 20
30.5
 11
-83.5
 21
45.5
  0
LINE
  8
0
 10
-83.5
 20
45.5
 11
-68.5
 21
45.5
  0
LINE
  8
0
 10
-68.5
 20
45.5
 11
-68.5
 21
30.5
  0
LINE
  8
0
 10
-68.5
 20
30.5
 11
-83.5
 21
30.5
  0
LINE
  8
0
 10
-64.5
 20
30.5
 11
-64.5
 21
45.5
  0
LINE
  8
0
 10
-64.5
 20
45.5
 11
-49.5
 21
45.5
  0
LINE
  8
0
 10
-49.5
 20
45.5
 11
-49.5
 21
30.5
  0
LINE
  8
0
 10
-49.5
 20
30.5
 11
-64.5
 21
30.5
  0
LINE
  8
0
 10
-45.5
 20
30.5
 11
-45.5
 21
45.5
  0
LINE
  8
0
 10
-45.5
 20
45.5
 11
-30.5
 21
45.5
  0
LINE
  8
0
 10
-30.5
 20
45.5
 11
-30.5
 21
30.5
  0
LINE
  8
0
 10
-30.5
 20
30.5
 11
-45.5
 21
30.5
  0
LINE
  8
0
 10
-121.5
 20
11.5
 11
-121.5
 21
26.5
  0
LINE
  8
0
 10
-121.5
 20
26.5
 11
-106.5
 21
26.5
  0
LINE
  8
0
 10
-106.5
 20
26.5
 11
-106.5
 21
11.5
  0
LINE
  8
0
 10
-106.5
 20
11.5
 11
-121.5
 21
11.5
  0
LINE
  8
0
 10
-26.5
 20
11.5
 11
-26.5
 21
26.5
  0
LINE
  8
0
 10
-26.5
 20
26.5
 11
-11.5
 21
26.5
  0
LINE
  8
0
 10
-11.5
 20
26.5
 11
-11.5
 21
11.5
  0
LINE
  8
0
 10
-11.5
 20
11.5
 11
-26.5
 21
11.5
  0
LINE
  8
0
 10
-102.5
 20
11.5
 11
-102.5
 21
26.5
  0
LINE
  8
0
 10
-102.5
 20
26.5
 11
-87.5
 21
26.5
  0
LINE
  8
0
 10
-87.5
 20
26.5
 11
-87.5
 21
11.5
  0
LINE
  8
0
 10
-87.5
 20
11.5
 11
-102.5
 21
11.5
  0
LINE
  8
0
 10
-83.5
 20
11.5
 11
-83.5
 21
26.5
  0
LINE
  8
0
 10
-83.5
 20
26.5
 11
-68.5
 21
26.5
  0
LINE
  8
0
 10
-68.5
 20
26.5
 11
-68.5
 21
11.5
  0
LINE
  8
0
 10
-68.5
 20
11.5
 11
-83.5
 21
11.5
  0
LINE
  8
0
 10
-64.5
 20
11.5
 11
-64.5
 21
26.5
  0
LINE
  8
0
 10
-64.5
 20
26.5
 11
-49.5
 21
26.5
  0
LINE
  8
0
 10
-49.5
 20
26.5
 11
-49.5
 21
11.5
  0
LINE
  8
0
 10
-49.5
 20
11.5
 11
-64.5
 21
11.5
  0
LINE
  8
0
 10
-45.5
 20
11.5
 11
-45.5
 21
26.5
  0
LINE
  8
0
 10
-45.5
 20
26.5
 11
-30.5
 21
26.5
  0
LINE
  8
0
 10
-30.5
 20
26.5
 11
-30.5
 21
11.5
  0
LINE
  8
0
 10
-30.5
 20
11.5
 11
-45.5
 21
11.5
  0
LINE
  8
0
 10
-64.5
 20
-7.5
 11
-64.5
 21
7.5
  0
LINE
  8
0
 10
-64.5
 20
7.5
 11
-49.5
 21
7.5
  0
LINE
  8
0
 10
-49.5
 20
7.5
 11
-49.5
 21
-7.5
  0
LINE
  8
0
 10
-49.5
 20
-7.5
 11
-64.5
 21
-7.5
  0
LINE
  8
0
 10
-26.5
 20
-7.5
 11
-26.5
 21
7.5
  0
LINE
  8
0
 10
-26.5
 20
7.5
 11
-11.5
 21
7.5
  0
LINE
  8
0
 10
-11.5
 20
7.5
 11
-11.5
 21
-7.5
  0
LINE
  8
0
 10
-11.5
 20
-7.5
 11
-26.5
 21
-7.5
  0
LINE
  8
0
 10
-45.5
 20
-7.5
 11
-45.5
 21
7.5
  0
LINE
  8
0
 10
-45.5
 20
7.5
 11
-30.5
 21
7.5
  0
LINE
  8
0
 10
-30.5
 20
7.5
 11
-30.5
 21
-7.5
  0
LINE
  8
0
 10
-30.5
 20
-7.5
 11
-45.5
 21
-7.5
  0
LINE
  8
0
 10
-83.5
 20
-7.5
 11
-83.5
 21
7.5
  0
LINE
  8
0
 10
-83.5
 20
7.5
 11
-68.5
 21
7.5
  0
LINE
  8
0
 10
-68.5
 20
7.5
 11
-68.5
 21
-7.5
  0
LINE
  8
0
 10
-68.5
 20
-7.5
 11
-83.5
 21
-7.5
  0
LINE
  8
0
 10
-102.5
 20
-7.5
 11
-102.5
 21
7.5
  0
LINE
  8
0
 10
-102.5
 20
7.5
 11
-87.5
 21
7.5
  0
LINE
  8
0
 10
-87.5
 20
7.5
 11
-87.5
 21
-7.5
  0
LINE
  8
0
 10
-87.5
 20
-7.5
 11
-102.5
 21
-7.5
  0
LINE
  8
0
 10
-121.5
 20
-7.5
 11
-121.5
 21
7.5
  0
LINE
  8
0
 10
-121.5
 20
7.5
 11
-106.5
 21
7.5
  0
LINE
  8
0
 10
-106.5
 20
7.5
 11
-106.5
 21
-7.5
  0
LINE
  8
0
 10
-106.5
 20
-7.5
 11
-121.5
 21
-7.5
  0
LINE
  8
0
 10
-55
 20
-28.4
 11
-55
 21
-13.4
  0
LINE
  8
0
 10
-55
 20
-13.4
 11
-40
 21
-13.4
  0
LINE
  8
0
 10
-40
 20
-13.4
 11
-40
 21
-28.4
  0
LINE
  8
0
 10
-40
 20
-28.4
 11
-55
 21
-28.4
  0
LINE
  8
0
 10
-33.8856
 20
-29.0533
 11
-30.0033
 21
-14.5644
  0
LINE
  8
0
 10
-30.0033
 20
-14.5644
 11
-15.5144
 21
-18.4467
  0
LINE
  8
0
 10
-15.5144
 20
-18.4467
 11
-19.3967
 21
-32.9356
  0
LINE
  8
0
 10
-19.3967
 20
-32.9356
 11
-33.8856
 21
-29.0533
  0
ENDSEC
  0
SECTION
  2
OBJECTS
  0
DICTIONARY
  0
ENDSEC
  0
EOF
