  0
SECTION
  2
BLOCKS
  0
ENDSEC
  0
SECTION
  2
ENTITIES
  0
LINE
  8
0
 10
-121.5
 20
-7.5
 11
-106.5
 21
-7.5
  0
LINE
  8
0
 10
-106.5
 20
-7.5
 11
-106.5
 21
7.5
  0
LINE
  8
0
 10
-106.5
 20
7.5
 11
-121.5
 21
7.5
  0
LINE
  8
0
 10
-121.5
 20
7.5
 11
-121.5
 21
-7.5
  0
LINE
  8
0
 10
-121.5
 20
11.5
 11
-106.5
 21
11.5
  0
LINE
  8
0
 10
-106.5
 20
11.5
 11
-106.5
 21
26.5
  0
LINE
  8
0
 10
-106.5
 20
26.5
 11
-121.5
 21
26.5
  0
LINE
  8
0
 10
-121.5
 20
26.5
 11
-121.5
 21
11.5
  0
LINE
  8
0
 10
-121.5
 20
30.5
 11
-106.5
 21
30.5
  0
LINE
  8
0
 10
-106.5
 20
30.5
 11
-106.5
 21
45.5
  0
LINE
  8
0
 10
-106.5
 20
45.5
 11
-121.5
 21
45.5
  0
LINE
  8
0
 10
-121.5
 20
45.5
 11
-121.5
 21
30.5
  0
LINE
  8
0
 10
-102.5
 20
-7.5
 11
-87.5
 21
-7.5
  0
LINE
  8
0
 10
-87.5
 20
-7.5
 11
-87.5
 21
7.5
  0
LINE
  8
0
 10
-87.5
 20
7.5
 11
-102.5
 21
7.5
  0
LINE
  8
0
 10
-102.5
 20
7.5
 11
-102.5
 21
-7.5
  0
LINE
  8
0
 10
-102.5
 20
11.5
 11
-87.5
 21
11.5
  0
LINE
  8
0
 10
-87.5
 20
11.5
 11
-87.5
 21
26.5
  0
LINE
  8
0
 10
-87.5
 20
26.5
 11
-102.5
 21
26.5
  0
LINE
  8
0
 10
-102.5
 20
26.5
 11
-102.5
 21
11.5
  0
LINE
  8
0
 10
-102.5
 20
30.5
 11
-87.5
 21
30.5
  0
LINE
  8
0
 10
-87.5
 20
30.5
 11
-87.5
 21
45.5
  0
LINE
  8
0
 10
-87.5
 20
45.5
 11
-102.5
 21
45.5
  0
LINE
  8
0
 10
-102.5
 20
45.5
 11
-102.5
 21
30.5
  0
LINE
  8
0
 10
-83.5
 20
-7.5
 11
-68.5
 21
-7.5
  0
LINE
  8
0
 10
-68.5
 20
-7.5
 11
-68.5
 21
7.5
  0
LINE
  8
0
 10
-68.5
 20
7.5
 11
-83.5
 21
7.5
  0
LINE
  8
0
 10
-83.5
 20
7.5
 11
-83.5
 21
-7.5
  0
LINE
  8
0
 10
-83.5
 20
11.5
 11
-68.5
 21
11.5
  0
LINE
  8
0
 10
-68.5
 20
11.5
 11
-68.5
 21
26.5
  0
LINE
  8
0
 10
-68.5
 20
26.5
 11
-83.5
 21
26.5
  0
LINE
  8
0
 10
-83.5
 20
26.5
 11
-83.5
 21
11.5
  0
LINE
  8
0
 10
-83.5
 20
30.5
 11
-68.5
 21
30.5
  0
LINE
  8
0
 10
-68.5
 20
30.5
 11
-68.5
 21
45.5
  0
LINE
  8
0
 10
-68.5
 20
45.5
 11
-83.5
 21
45.5
  0
LINE
  8
0
 10
-83.5
 20
45.5
 11
-83.5
 21
30.5
  0
LINE
  8
0
 10
-64.5
 20
-7.5
 11
-49.5
 21
-7.5
  0
LINE
  8
0
 10
-49.5
 20
-7.5
 11
-49.5
 21
7.5
  0
LINE
  8
0
 10
-49.5
 20
7.5
 11
-64.5
 21
7.5
  0
LINE
  8
0
 10
-64.5
 20
7.5
 11
-64.5
 21
-7.5
  0
LINE
  8
0
 10
-64.5
 20
11.5
 11
-49.5
 21
11.5
  0
LINE
  8
0
 10
-49.5
 20
11.5
 11
-49.5
 21
26.5
  0
LINE
  8
0
 10
-49.5
 20
26.5
 11
-64.5
 21
26.5
  0
LINE
  8
0
 10
-64.5
 20
26.5
 11
-64.5
 21
11.5
  0
LINE
  8
0
 10
-64.5
 20
30.5
 11
-49.5
 21
30.5
  0
LINE
  8
0
 10
-49.5
 20
30.5
 11
-49.5
 21
45.5
  0
LINE
  8
0
 10
-49.5
 20
45.5
 11
-64.5
 21
45.5
  0
LINE
  8
0
 10
-64.5
 20
45.5
 11
-64.5
 21
30.5
  0
LINE
  8
0
 10
-55
 20
-28.4
 11
-40
 21
-28.4
  0
LINE
  8
0
 10
-40
 20
-28.4
 11
-40
 21
-13.4
  0
LINE
  8
0
 10
-40
 20
-13.4
 11
-55
 21
-13.4
  0
LINE
  8
0
 10
-55
 20
-13.4
 11
-55
 21
-28.4
  0
LINE
  8
0
 10
-45.5
 20
-7.5
 11
-30.5
 21
-7.5
  0
LINE
  8
0
 10
-30.5
 20
-7.5
 11
-30.5
 21
7.5
  0
LINE
  8
0
 10
-30.5
 20
7.5
 11
-45.5
 21
7.5
  0
LINE
  8
0
 10
-45.5
 20
7.5
 11
-45.5
 21
-7.5
  0
LINE
  8
0
 10
-45.5
 20
11.5
 11
-30.5
 21
11.5
  0
LINE
  8
0
 10
-30.5
 20
11.5
 11
-30.5
 21
26.5
  0
LINE
  8
0
 10
-30.5
 20
26.5
 11
-45.5
 21
26.5
  0
LINE
  8
0
 10
-45.5
 20
26.5
 11
-45.5
 21
11.5
  0
LINE
  8
0
 10
-45.5
 20
30.5
 11
-30.5
 21
30.5
  0
LINE
  8
0
 10
-30.5
 20
30.5
 11
-30.5
 21
45.5
  0
LINE
  8
0
 10
-30.5
 20
45.5
 11
-45.5
 21
45.5
  0
LINE
  8
0
 10
-45.5
 20
45.5
 11
-45.5
 21
30.5
  0
LINE
  8
0
 10
-33.8856
 20
-29.0533
 11
-19.3967
 21
-32.9356
  0
LINE
  8
0
 10
-19.3967
 20
-32.9356
 11
-15.5144
 21
-18.4467
  0
LINE
  8
0
 10
-15.5144
 20
-18.4467
 11
-30.0033
 21
-14.5644
  0
LINE
  8
0
 10
-30.0033
 20
-14.5644
 11
-33.8856
 21
-29.0533
  0
LINE
  8
0
 10
-26.5
 20
-7.5
 11
-11.5
 21
-7.5
  0
LINE
  8
0
 10
-11.5
 20
-7.5
 11
-11.5
 21
7.5
  0
LINE
  8
0
 10
-11.5
 20
7.5
 11
-26.5
 21
7.5
  0
LINE
  8
0
 10
-26.5
 20
7.5
 11
-26.5
 21
-7.5
  0
LINE
  8
0
 10
-26.5
 20
11.5
 11
-11.5
 21
11.5
  0
LINE
  8
0
 10
-11.5
 20
11.5
 11
-11.5
 21
26.5
  0
LINE
  8
0
 10
-11.5
 20
26.5
 11
-26.5
 21
26.5
  0
LINE
  8
0
 10
-26.5
 20
26.5
 11
-26.5
 21
11.5
  0
LINE
  8
0
 10
-26.5
 20
30.5
 11
-11.5
 21
30.5
  0
LINE
  8
0
 10
-11.5
 20
30.5
 11
-11.5
 21
45.5
  0
LINE
  8
0
 10
-11.5
 20
45.5
 11
-26.5
 21
45.5
  0
LINE
  8
0
 10
-26.5
 20
45.5
 11
-26.5
 21
30.5
  0
ENDSEC
  0
SECTION
  2
OBJECTS
  0
DICTIONARY
  0
ENDSEC
  0
EOF
