  0
SECTION
  2
BLOCKS
  0
ENDSEC
  0
SECTION
  2
ENTITIES
  0
LINE
  8
0
 10
36.2235
 20
-42.5365
 11
53.6101
 21
-37.8777
  0
LINE
  8
0
 10
53.6101
 20
-37.8777
 11
53.8513
 21
-37.7778
  0
LINE
  8
0
 10
53.8513
 20
-37.7778
 11
69.4398
 21
-28.7778
  0
LINE
  8
0
 10
69.4398
 20
-28.7778
 11
69.5919
 21
-28.6699
  0
LINE
  8
0
 10
69.5919
 20
-28.6699
 11
101.732
 21
-1.02202
  0
LINE
  8
0
 10
101.732
 20
-1.02202
 11
136.285
 21
8.2364
  0
LINE
  8
0
 10
136.285
 20
8.2364
 11
136.481
 21
8.31133
  0
LINE
  8
0
 10
136.481
 20
8.31133
 11
136.656
 21
8.42519
  0
LINE
  8
0
 10
136.656
 20
8.42519
 11
136.804
 21
8.57301
  0
LINE
  8
0
 10
136.804
 20
8.57301
 11
136.918
 21
8.74834
  0
LINE
  8
0
 10
136.918
 20
8.74834
 11
136.992
 21
8.94351
  0
LINE
  8
0
 10
136.992
 20
8.94351
 11
137.025
 21
9.14999
  0
LINE
  8
0
 10
137.025
 20
9.14999
 11
137.014
 21
9.35876
  0
LINE
  8
0
 10
137.014
 20
9.35876
 11
136.992
 21
9.46115
  0
LINE
  8
0
 10
136.992
 20
9.46115
 11
123.793
 21
58.7234
  0
LINE
  8
0
 10
123.793
 20
58.7234
 11
123.718
 21
58.9185
  0
LINE
  8
0
 10
123.718
 20
58.9185
 11
123.604
 21
59.0939
  0
LINE
  8
0
 10
123.604
 20
59.0939
 11
123.456
 21
59.2417
  0
LINE
  8
0
 10
123.456
 20
59.2417
 11
123.281
 21
59.3556
  0
LINE
  8
0
 10
123.281
 20
59.3556
 11
123.086
 21
59.4305
  0
LINE
  8
0
 10
123.086
 20
59.4305
 11
122.879
 21
59.4632
  0
LINE
  8
0
 10
122.879
 20
59.4632
 11
122.67
 21
59.4522
  0
LINE
  8
0
 10
122.67
 20
59.4522
 11
122.568
 21
59.4305
  0
LINE
  8
0
 10
122.568
 20
59.4305
 11
88.7606
 21
50.3718
  0
LINE
  8
0
 10
88.7606
 20
50.3718
 11
86.8194
 21
57.6163
  0
LINE
  8
0
 10
86.8194
 20
57.6163
 11
86.7445
 21
57.8114
  0
LINE
  8
0
 10
86.7445
 20
57.8114
 11
86.6307
 21
57.9868
  0
LINE
  8
0
 10
86.6307
 20
57.9868
 11
86.4828
 21
58.1346
  0
LINE
  8
0
 10
86.4828
 20
58.1346
 11
86.3075
 21
58.2484
  0
LINE
  8
0
 10
86.3075
 20
58.2484
 11
86.1123
 21
58.3234
  0
LINE
  8
0
 10
86.1123
 20
58.3234
 11
85.9059
 21
58.3561
  0
LINE
  8
0
 10
85.9059
 20
58.3561
 11
85.6971
 21
58.3451
  0
LINE
  8
0
 10
85.6971
 20
58.3451
 11
85.5947
 21
58.3234
  0
LINE
  8
0
 10
85.5947
 20
58.3234
 11
16.048
 21
39.6884
  0
LINE
  8
0
 10
16.048
 20
39.6884
 11
15.8529
 21
39.6135
  0
LINE
  8
0
 10
15.8529
 20
39.6135
 11
15.6775
 21
39.4996
  0
LINE
  8
0
 10
15.6775
 20
39.4996
 11
15.5297
 21
39.3518
  0
LINE
  8
0
 10
15.5297
 20
39.3518
 11
15.4158
 21
39.1765
  0
LINE
  8
0
 10
15.4158
 20
39.1765
 11
15.3409
 21
38.9813
  0
LINE
  8
0
 10
15.3409
 20
38.9813
 11
15.3082
 21
38.7748
  0
LINE
  8
0
 10
15.3082
 20
38.7748
 11
15.3409
 21
38.4637
  0
LINE
  8
0
 10
15.3409
 20
38.4637
 11
16.269
 21
35
  0
LINE
  8
0
 10
16.269
 20
35
 11
-16.269
 21
35
  0
LINE
  8
0
 10
-16.269
 20
35
 11
-15.3409
 21
38.4637
  0
LINE
  8
0
 10
-15.3409
 20
38.4637
 11
-15.3082
 21
38.6701
  0
LINE
  8
0
 10
-15.3082
 20
38.6701
 11
-15.3192
 21
38.8789
  0
LINE
  8
0
 10
-15.3192
 20
38.8789
 11
-15.3733
 21
39.0808
  0
LINE
  8
0
 10
-15.3733
 20
39.0808
 11
-15.4682
 21
39.2671
  0
LINE
  8
0
 10
-15.4682
 20
39.2671
 11
-15.5997
 21
39.4296
  0
LINE
  8
0
 10
-15.5997
 20
39.4296
 11
-15.7622
 21
39.5611
  0
LINE
  8
0
 10
-15.7622
 20
39.5611
 11
-16.048
 21
39.6884
  0
LINE
  8
0
 10
-16.048
 20
39.6884
 11
-85.5947
 21
58.3234
  0
LINE
  8
0
 10
-85.5947
 20
58.3234
 11
-85.8012
 21
58.3561
  0
LINE
  8
0
 10
-85.8012
 20
58.3561
 11
-86.0099
 21
58.3451
  0
LINE
  8
0
 10
-86.0099
 20
58.3451
 11
-86.2119
 21
58.291
  0
LINE
  8
0
 10
-86.2119
 20
58.291
 11
-86.3981
 21
58.1961
  0
LINE
  8
0
 10
-86.3981
 20
58.1961
 11
-86.5606
 21
58.0645
  0
LINE
  8
0
 10
-86.5606
 20
58.0645
 11
-86.6922
 21
57.9021
  0
LINE
  8
0
 10
-86.6922
 20
57.9021
 11
-86.7871
 21
57.7158
  0
LINE
  8
0
 10
-86.7871
 20
57.7158
 11
-86.8194
 21
57.6163
  0
LINE
  8
0
 10
-86.8194
 20
57.6163
 11
-88.7606
 21
50.3718
  0
LINE
  8
0
 10
-88.7606
 20
50.3718
 11
-122.568
 21
59.4305
  0
LINE
  8
0
 10
-122.568
 20
59.4305
 11
-122.774
 21
59.4632
  0
LINE
  8
0
 10
-122.774
 20
59.4632
 11
-122.983
 21
59.4522
  0
LINE
  8
0
 10
-122.983
 20
59.4522
 11
-123.185
 21
59.3981
  0
LINE
  8
0
 10
-123.185
 20
59.3981
 11
-123.371
 21
59.3032
  0
LINE
  8
0
 10
-123.371
 20
59.3032
 11
-123.534
 21
59.1717
  0
LINE
  8
0
 10
-123.534
 20
59.1717
 11
-123.665
 21
59.0092
  0
LINE
  8
0
 10
-123.665
 20
59.0092
 11
-123.76
 21
58.8229
  0
LINE
  8
0
 10
-123.76
 20
58.8229
 11
-123.793
 21
58.7234
  0
LINE
  8
0
 10
-123.793
 20
58.7234
 11
-136.992
 21
9.46115
  0
LINE
  8
0
 10
-136.992
 20
9.46115
 11
-137.025
 21
9.25467
  0
LINE
  8
0
 10
-137.025
 20
9.25467
 11
-137.014
 21
9.0459
  0
LINE
  8
0
 10
-137.014
 20
9.0459
 11
-136.96
 21
8.84396
  0
LINE
  8
0
 10
-136.96
 20
8.84396
 11
-136.865
 21
8.6577
  0
LINE
  8
0
 10
-136.865
 20
8.6577
 11
-136.734
 21
8.49522
  0
LINE
  8
0
 10
-136.734
 20
8.49522
 11
-136.571
 21
8.36366
  0
LINE
  8
0
 10
-136.571
 20
8.36366
 11
-136.385
 21
8.26875
  0
LINE
  8
0
 10
-136.385
 20
8.26875
 11
-136.285
 21
8.2364
  0
LINE
  8
0
 10
-136.285
 20
8.2364
 11
-101.732
 21
-1.02202
  0
LINE
  8
0
 10
-101.732
 20
-1.02202
 11
-69.5919
 21
-28.6699
  0
LINE
  8
0
 10
-69.5919
 20
-28.6699
 11
-69.4398
 21
-28.7778
  0
LINE
  8
0
 10
-69.4398
 20
-28.7778
 11
-53.8513
 21
-37.7778
  0
LINE
  8
0
 10
-53.8513
 20
-37.7778
 11
-53.6101
 21
-37.8777
  0
LINE
  8
0
 10
-53.6101
 20
-37.8777
 11
-36.2235
 21
-42.5365
  0
LINE
  8
0
 10
-36.2235
 20
-42.5365
 11
-36.017
 21
-42.5692
  0
LINE
  8
0
 10
-36.017
 20
-42.5692
 11
-35.8082
 21
-42.5582
  0
LINE
  8
0
 10
-35.8082
 20
-42.5582
 11
-35.6063
 21
-42.5041
  0
LINE
  8
0
 10
-35.6063
 20
-42.5041
 11
-35.42
 21
-42.4092
  0
LINE
  8
0
 10
-35.42
 20
-42.4092
 11
-35.2576
 21
-42.2776
  0
LINE
  8
0
 10
-35.2576
 20
-42.2776
 11
-35.0986
 21
-42.0705
  0
LINE
  8
0
 10
-35.0986
 20
-42.0705
 11
-31.0165
 21
-35
  0
LINE
  8
0
 10
-31.0165
 20
-35
 11
31.0165
 21
-35
  0
LINE
  8
0
 10
31.0165
 20
-35
 11
35.0986
 21
-42.0705
  0
LINE
  8
0
 10
35.0986
 20
-42.0705
 11
35.2215
 21
-42.2397
  0
LINE
  8
0
 10
35.2215
 20
-42.2397
 11
35.3769
 21
-42.3795
  0
LINE
  8
0
 10
35.3769
 20
-42.3795
 11
35.5579
 21
-42.4841
  0
LINE
  8
0
 10
35.5579
 20
-42.4841
 11
35.7567
 21
-42.5487
  0
LINE
  8
0
 10
35.7567
 20
-42.5487
 11
35.9647
 21
-42.5705
  0
LINE
  8
0
 10
35.9647
 20
-42.5705
 11
36.2235
 21
-42.5365
  0
ENDSEC
  0
SECTION
  2
OBJECTS
  0
DICTIONARY
  0
ENDSEC
  0
EOF
