  0
SECTION
  2
BLOCKS
  0
ENDSEC
  0
SECTION
  2
ENTITIES
  0
LINE
  8
0
 10
54.2235
 20
-42.5365
 11
71.6101
 21
-37.8777
  0
LINE
  8
0
 10
71.6101
 20
-37.8777
 11
71.8513
 21
-37.7778
  0
LINE
  8
0
 10
71.8513
 20
-37.7778
 11
87.4398
 21
-28.7778
  0
LINE
  8
0
 10
87.4398
 20
-28.7778
 11
87.5919
 21
-28.6699
  0
LINE
  8
0
 10
87.5919
 20
-28.6699
 11
119.732
 21
-1.02202
  0
LINE
  8
0
 10
119.732
 20
-1.02202
 11
154.285
 21
8.2364
  0
LINE
  8
0
 10
154.285
 20
8.2364
 11
154.481
 21
8.31133
  0
LINE
  8
0
 10
154.481
 20
8.31133
 11
154.656
 21
8.42519
  0
LINE
  8
0
 10
154.656
 20
8.42519
 11
154.804
 21
8.57301
  0
LINE
  8
0
 10
154.804
 20
8.57301
 11
154.918
 21
8.74834
  0
LINE
  8
0
 10
154.918
 20
8.74834
 11
154.992
 21
8.94351
  0
LINE
  8
0
 10
154.992
 20
8.94351
 11
155.025
 21
9.14999
  0
LINE
  8
0
 10
155.025
 20
9.14999
 11
155.014
 21
9.35876
  0
LINE
  8
0
 10
155.014
 20
9.35876
 11
154.992
 21
9.46115
  0
LINE
  8
0
 10
154.992
 20
9.46115
 11
141.793
 21
58.7234
  0
LINE
  8
0
 10
141.793
 20
58.7234
 11
141.718
 21
58.9185
  0
LINE
  8
0
 10
141.718
 20
58.9185
 11
141.604
 21
59.0939
  0
LINE
  8
0
 10
141.604
 20
59.0939
 11
141.456
 21
59.2417
  0
LINE
  8
0
 10
141.456
 20
59.2417
 11
141.281
 21
59.3556
  0
LINE
  8
0
 10
141.281
 20
59.3556
 11
141.086
 21
59.4305
  0
LINE
  8
0
 10
141.086
 20
59.4305
 11
140.879
 21
59.4632
  0
LINE
  8
0
 10
140.879
 20
59.4632
 11
140.67
 21
59.4522
  0
LINE
  8
0
 10
140.67
 20
59.4522
 11
140.568
 21
59.4305
  0
LINE
  8
0
 10
140.568
 20
59.4305
 11
106.761
 21
50.3718
  0
LINE
  8
0
 10
106.761
 20
50.3718
 11
104.819
 21
57.6163
  0
LINE
  8
0
 10
104.819
 20
57.6163
 11
104.745
 21
57.8114
  0
LINE
  8
0
 10
104.745
 20
57.8114
 11
104.631
 21
57.9868
  0
LINE
  8
0
 10
104.631
 20
57.9868
 11
104.483
 21
58.1346
  0
LINE
  8
0
 10
104.483
 20
58.1346
 11
104.308
 21
58.2484
  0
LINE
  8
0
 10
104.308
 20
58.2484
 11
104.112
 21
58.3234
  0
LINE
  8
0
 10
104.112
 20
58.3234
 11
103.906
 21
58.3561
  0
LINE
  8
0
 10
103.906
 20
58.3561
 11
103.697
 21
58.3451
  0
LINE
  8
0
 10
103.697
 20
58.3451
 11
103.595
 21
58.3234
  0
LINE
  8
0
 10
103.595
 20
58.3234
 11
34.048
 21
39.6884
  0
LINE
  8
0
 10
34.048
 20
39.6884
 11
33.8529
 21
39.6135
  0
LINE
  8
0
 10
33.8529
 20
39.6135
 11
33.6775
 21
39.4996
  0
LINE
  8
0
 10
33.6775
 20
39.4996
 11
33.5297
 21
39.3518
  0
LINE
  8
0
 10
33.5297
 20
39.3518
 11
33.4158
 21
39.1765
  0
LINE
  8
0
 10
33.4158
 20
39.1765
 11
33.3409
 21
38.9813
  0
LINE
  8
0
 10
33.3409
 20
38.9813
 11
33.3082
 21
38.7748
  0
LINE
  8
0
 10
33.3082
 20
38.7748
 11
33.3409
 21
38.4637
  0
LINE
  8
0
 10
33.3409
 20
38.4637
 11
34.269
 21
35
  0
LINE
  8
0
 10
34.269
 20
35
 11
-34.269
 21
35
  0
LINE
  8
0
 10
-34.269
 20
35
 11
-33.3409
 21
38.4637
  0
LINE
  8
0
 10
-33.3409
 20
38.4637
 11
-33.3082
 21
38.6701
  0
LINE
  8
0
 10
-33.3082
 20
38.6701
 11
-33.3192
 21
38.8789
  0
LINE
  8
0
 10
-33.3192
 20
38.8789
 11
-33.3733
 21
39.0808
  0
LINE
  8
0
 10
-33.3733
 20
39.0808
 11
-33.4682
 21
39.2671
  0
LINE
  8
0
 10
-33.4682
 20
39.2671
 11
-33.5997
 21
39.4296
  0
LINE
  8
0
 10
-33.5997
 20
39.4296
 11
-33.7622
 21
39.5611
  0
LINE
  8
0
 10
-33.7622
 20
39.5611
 11
-34.048
 21
39.6884
  0
LINE
  8
0
 10
-34.048
 20
39.6884
 11
-103.595
 21
58.3234
  0
LINE
  8
0
 10
-103.595
 20
58.3234
 11
-103.801
 21
58.3561
  0
LINE
  8
0
 10
-103.801
 20
58.3561
 11
-104.01
 21
58.3451
  0
LINE
  8
0
 10
-104.01
 20
58.3451
 11
-104.212
 21
58.291
  0
LINE
  8
0
 10
-104.212
 20
58.291
 11
-104.398
 21
58.1961
  0
LINE
  8
0
 10
-104.398
 20
58.1961
 11
-104.561
 21
58.0645
  0
LINE
  8
0
 10
-104.561
 20
58.0645
 11
-104.692
 21
57.9021
  0
LINE
  8
0
 10
-104.692
 20
57.9021
 11
-104.787
 21
57.7158
  0
LINE
  8
0
 10
-104.787
 20
57.7158
 11
-104.819
 21
57.6163
  0
LINE
  8
0
 10
-104.819
 20
57.6163
 11
-106.761
 21
50.3718
  0
LINE
  8
0
 10
-106.761
 20
50.3718
 11
-140.568
 21
59.4305
  0
LINE
  8
0
 10
-140.568
 20
59.4305
 11
-140.774
 21
59.4632
  0
LINE
  8
0
 10
-140.774
 20
59.4632
 11
-140.983
 21
59.4522
  0
LINE
  8
0
 10
-140.983
 20
59.4522
 11
-141.185
 21
59.3981
  0
LINE
  8
0
 10
-141.185
 20
59.3981
 11
-141.371
 21
59.3032
  0
LINE
  8
0
 10
-141.371
 20
59.3032
 11
-141.534
 21
59.1717
  0
LINE
  8
0
 10
-141.534
 20
59.1717
 11
-141.665
 21
59.0092
  0
LINE
  8
0
 10
-141.665
 20
59.0092
 11
-141.76
 21
58.8229
  0
LINE
  8
0
 10
-141.76
 20
58.8229
 11
-141.793
 21
58.7234
  0
LINE
  8
0
 10
-141.793
 20
58.7234
 11
-154.992
 21
9.46115
  0
LINE
  8
0
 10
-154.992
 20
9.46115
 11
-155.025
 21
9.25467
  0
LINE
  8
0
 10
-155.025
 20
9.25467
 11
-155.014
 21
9.0459
  0
LINE
  8
0
 10
-155.014
 20
9.0459
 11
-154.96
 21
8.84396
  0
LINE
  8
0
 10
-154.96
 20
8.84396
 11
-154.865
 21
8.6577
  0
LINE
  8
0
 10
-154.865
 20
8.6577
 11
-154.734
 21
8.49522
  0
LINE
  8
0
 10
-154.734
 20
8.49522
 11
-154.571
 21
8.36366
  0
LINE
  8
0
 10
-154.571
 20
8.36366
 11
-154.385
 21
8.26875
  0
LINE
  8
0
 10
-154.385
 20
8.26875
 11
-154.285
 21
8.2364
  0
LINE
  8
0
 10
-154.285
 20
8.2364
 11
-119.732
 21
-1.02202
  0
LINE
  8
0
 10
-119.732
 20
-1.02202
 11
-87.5919
 21
-28.6699
  0
LINE
  8
0
 10
-87.5919
 20
-28.6699
 11
-87.4398
 21
-28.7778
  0
LINE
  8
0
 10
-87.4398
 20
-28.7778
 11
-71.8513
 21
-37.7778
  0
LINE
  8
0
 10
-71.8513
 20
-37.7778
 11
-71.6101
 21
-37.8777
  0
LINE
  8
0
 10
-71.6101
 20
-37.8777
 11
-54.2235
 21
-42.5365
  0
LINE
  8
0
 10
-54.2235
 20
-42.5365
 11
-54.017
 21
-42.5692
  0
LINE
  8
0
 10
-54.017
 20
-42.5692
 11
-53.8082
 21
-42.5582
  0
LINE
  8
0
 10
-53.8082
 20
-42.5582
 11
-53.6063
 21
-42.5041
  0
LINE
  8
0
 10
-53.6063
 20
-42.5041
 11
-53.42
 21
-42.4092
  0
LINE
  8
0
 10
-53.42
 20
-42.4092
 11
-53.2576
 21
-42.2776
  0
LINE
  8
0
 10
-53.2576
 20
-42.2776
 11
-53.0986
 21
-42.0705
  0
LINE
  8
0
 10
-53.0986
 20
-42.0705
 11
-49.0165
 21
-35
  0
LINE
  8
0
 10
-49.0165
 20
-35
 11
49.0165
 21
-35
  0
LINE
  8
0
 10
49.0165
 20
-35
 11
53.0986
 21
-42.0705
  0
LINE
  8
0
 10
53.0986
 20
-42.0705
 11
53.2215
 21
-42.2397
  0
LINE
  8
0
 10
53.2215
 20
-42.2397
 11
53.3769
 21
-42.3795
  0
LINE
  8
0
 10
53.3769
 20
-42.3795
 11
53.5579
 21
-42.4841
  0
LINE
  8
0
 10
53.5579
 20
-42.4841
 11
53.7567
 21
-42.5487
  0
LINE
  8
0
 10
53.7567
 20
-42.5487
 11
53.9647
 21
-42.5705
  0
LINE
  8
0
 10
53.9647
 20
-42.5705
 11
54.2235
 21
-42.5365
  0
ENDSEC
  0
SECTION
  2
OBJECTS
  0
DICTIONARY
  0
ENDSEC
  0
EOF
