  0
SECTION
  2
BLOCKS
  0
ENDSEC
  0
SECTION
  2
ENTITIES
  0
LINE
  8
0
 10
-152.319
 20
9.78004
 11
-137.83
 21
5.89776
  0
LINE
  8
0
 10
-137.83
 20
5.89776
 11
-133.948
 21
20.3866
  0
LINE
  8
0
 10
-133.948
 20
20.3866
 11
-148.437
 21
24.2689
  0
LINE
  8
0
 10
-148.437
 20
24.2689
 11
-152.319
 21
9.78004
  0
LINE
  8
0
 10
-147.919
 20
26.2008
 11
-133.43
 21
22.3185
  0
LINE
  8
0
 10
-133.43
 20
22.3185
 11
-129.548
 21
36.8074
  0
LINE
  8
0
 10
-129.548
 20
36.8074
 11
-144.037
 21
40.6897
  0
LINE
  8
0
 10
-144.037
 20
40.6897
 11
-147.919
 21
26.2008
  0
LINE
  8
0
 10
-143.519
 20
42.6215
 11
-129.03
 21
38.7392
  0
LINE
  8
0
 10
-129.03
 20
38.7392
 11
-125.148
 21
53.2281
  0
LINE
  8
0
 10
-125.148
 20
53.2281
 11
-139.637
 21
57.1104
  0
LINE
  8
0
 10
-139.637
 20
57.1104
 11
-143.519
 21
42.6215
  0
LINE
  8
0
 10
-134.932
 20
5.1213
 11
-120.443
 21
1.23902
  0
LINE
  8
0
 10
-120.443
 20
1.23902
 11
-116.561
 21
15.7279
  0
LINE
  8
0
 10
-116.561
 20
15.7279
 11
-131.05
 21
19.6102
  0
LINE
  8
0
 10
-131.05
 20
19.6102
 11
-134.932
 21
5.1213
  0
LINE
  8
0
 10
-130.532
 20
21.542
 11
-116.043
 21
17.6598
  0
LINE
  8
0
 10
-116.043
 20
17.6598
 11
-112.161
 21
32.1486
  0
LINE
  8
0
 10
-112.161
 20
32.1486
 11
-126.65
 21
36.0309
  0
LINE
  8
0
 10
-126.65
 20
36.0309
 11
-130.532
 21
21.542
  0
LINE
  8
0
 10
-126.132
 20
37.9628
 11
-111.643
 21
34.0805
  0
LINE
  8
0
 10
-111.643
 20
34.0805
 11
-107.761
 21
48.5694
  0
LINE
  8
0
 10
-107.761
 20
48.5694
 11
-122.25
 21
52.4517
  0
LINE
  8
0
 10
-122.25
 20
52.4517
 11
-126.132
 21
37.9628
  0
LINE
  8
0
 10
-115.346
 20
8.67293
 11
-100.857
 21
4.79064
  0
LINE
  8
0
 10
-100.857
 20
4.79064
 11
-96.9744
 21
19.2795
  0
LINE
  8
0
 10
-96.9744
 20
19.2795
 11
-111.463
 21
23.1618
  0
LINE
  8
0
 10
-111.463
 20
23.1618
 11
-115.346
 21
8.67293
  0
LINE
  8
0
 10
-110.946
 20
25.0937
 11
-96.4568
 21
21.2114
  0
LINE
  8
0
 10
-96.4568
 20
21.2114
 11
-92.5745
 21
35.7003
  0
LINE
  8
0
 10
-92.5745
 20
35.7003
 11
-107.063
 21
39.5826
  0
LINE
  8
0
 10
-107.063
 20
39.5826
 11
-110.946
 21
25.0937
  0
LINE
  8
0
 10
-106.546
 20
41.5144
 11
-92.0568
 21
37.6321
  0
LINE
  8
0
 10
-92.0568
 20
37.6321
 11
-88.1746
 21
52.121
  0
LINE
  8
0
 10
-88.1746
 20
52.121
 11
-102.663
 21
56.0033
  0
LINE
  8
0
 10
-102.663
 20
56.0033
 11
-106.546
 21
41.5144
  0
LINE
  8
0
 10
-98.4522
 20
-15.2133
 11
-83.9633
 21
-19.0956
  0
LINE
  8
0
 10
-83.9633
 20
-19.0956
 11
-80.081
 21
-4.60671
  0
LINE
  8
0
 10
-80.081
 20
-4.60671
 11
-94.5699
 21
-0.724426
  0
LINE
  8
0
 10
-94.5699
 20
-0.724426
 11
-98.4522
 21
-15.2133
  0
LINE
  8
0
 10
-97.9589
 20
4.01418
 11
-83.47
 21
0.131899
  0
LINE
  8
0
 10
-83.47
 20
0.131899
 11
-79.5877
 21
14.6208
  0
LINE
  8
0
 10
-79.5877
 20
14.6208
 11
-94.0766
 21
18.5031
  0
LINE
  8
0
 10
-94.0766
 20
18.5031
 11
-97.9589
 21
4.01418
  0
LINE
  8
0
 10
-93.559
 20
20.4349
 11
-79.0701
 21
16.5526
  0
LINE
  8
0
 10
-79.0701
 20
16.5526
 11
-75.1878
 21
31.0415
  0
LINE
  8
0
 10
-75.1878
 20
31.0415
 11
-89.6767
 21
34.9238
  0
LINE
  8
0
 10
-89.6767
 20
34.9238
 11
-93.559
 21
20.4349
  0
LINE
  8
0
 10
-89.1591
 20
36.8557
 11
-74.6702
 21
32.9734
  0
LINE
  8
0
 10
-74.6702
 20
32.9734
 11
-70.7879
 21
47.4623
  0
LINE
  8
0
 10
-70.7879
 20
47.4623
 11
-85.2768
 21
51.3446
  0
LINE
  8
0
 10
-85.2768
 20
51.3446
 11
-89.1591
 21
36.8557
  0
LINE
  8
0
 10
-83.0157
 20
-24.1152
 11
-70.0254
 21
-31.6152
  0
LINE
  8
0
 10
-70.0254
 20
-31.6152
 11
-62.5254
 21
-18.6248
  0
LINE
  8
0
 10
-62.5254
 20
-18.6248
 11
-75.5157
 21
-11.1248
  0
LINE
  8
0
 10
-75.5157
 20
-11.1248
 11
-83.0157
 21
-24.1152
  0
LINE
  8
0
 10
-80.5723
 20
-0.644558
 11
-66.0834
 21
-4.52684
  0
LINE
  8
0
 10
-66.0834
 20
-4.52684
 11
-62.2011
 21
9.96204
  0
LINE
  8
0
 10
-62.2011
 20
9.96204
 11
-76.69
 21
13.8443
  0
LINE
  8
0
 10
-76.69
 20
13.8443
 11
-80.5723
 21
-0.644558
  0
LINE
  8
0
 10
-76.1723
 20
15.7762
 11
-61.6834
 21
11.8939
  0
LINE
  8
0
 10
-61.6834
 20
11.8939
 11
-57.8012
 21
26.3828
  0
LINE
  8
0
 10
-57.8012
 20
26.3828
 11
-72.29
 21
30.2651
  0
LINE
  8
0
 10
-72.29
 20
30.2651
 11
-76.1723
 21
15.7762
  0
LINE
  8
0
 10
-71.7724
 20
32.1969
 11
-57.2835
 21
28.3146
  0
LINE
  8
0
 10
-57.2835
 20
28.3146
 11
-53.4012
 21
42.8035
  0
LINE
  8
0
 10
-53.4012
 20
42.8035
 11
-67.8901
 21
46.6858
  0
LINE
  8
0
 10
-67.8901
 20
46.6858
 11
-71.7724
 21
32.1969
  0
LINE
  8
0
 10
-65.6291
 20
-28.7739
 11
-52.6387
 21
-36.2739
  0
LINE
  8
0
 10
-52.6387
 20
-36.2739
 11
-45.1387
 21
-23.2835
  0
LINE
  8
0
 10
-45.1387
 20
-23.2835
 11
-58.1291
 21
-15.7835
  0
LINE
  8
0
 10
-58.1291
 20
-15.7835
 11
-65.6291
 21
-28.7739
  0
LINE
  8
0
 10
-63.1856
 20
-5.3033
 11
-48.6967
 21
-9.18559
  0
LINE
  8
0
 10
-48.6967
 20
-9.18559
 11
-44.8144
 21
5.3033
  0
LINE
  8
0
 10
-44.8144
 20
5.3033
 11
-59.3033
 21
9.18559
  0
LINE
  8
0
 10
-59.3033
 20
9.18559
 11
-63.1856
 21
-5.3033
  0
LINE
  8
0
 10
-58.7857
 20
11.1174
 11
-44.2968
 21
7.23515
  0
LINE
  8
0
 10
-44.2968
 20
7.23515
 11
-40.4145
 21
21.724
  0
LINE
  8
0
 10
-40.4145
 20
21.724
 11
-54.9034
 21
25.6063
  0
LINE
  8
0
 10
-54.9034
 20
25.6063
 11
-58.7857
 21
11.1174
  0
LINE
  8
0
 10
-54.3857
 20
27.5382
 11
-39.8969
 21
23.6559
  0
LINE
  8
0
 10
-39.8969
 20
23.6559
 11
-36.0146
 21
38.1448
  0
LINE
  8
0
 10
-36.0146
 20
38.1448
 11
-50.5035
 21
42.0271
  0
LINE
  8
0
 10
-50.5035
 20
42.0271
 11
-54.3857
 21
27.5382
  0
LINE
  8
0
 10
36.0146
 20
38.1448
 11
39.8969
 21
23.6559
  0
LINE
  8
0
 10
39.8969
 20
23.6559
 11
54.3857
 21
27.5382
  0
LINE
  8
0
 10
54.3857
 20
27.5382
 11
50.5035
 21
42.0271
  0
LINE
  8
0
 10
50.5035
 20
42.0271
 11
36.0146
 21
38.1448
  0
LINE
  8
0
 10
40.4145
 20
21.724
 11
44.2968
 21
7.23515
  0
LINE
  8
0
 10
44.2968
 20
7.23515
 11
58.7857
 21
11.1174
  0
LINE
  8
0
 10
58.7857
 20
11.1174
 11
54.9034
 21
25.6063
  0
LINE
  8
0
 10
54.9034
 20
25.6063
 11
40.4145
 21
21.724
  0
LINE
  8
0
 10
44.8144
 20
5.3033
 11
48.6967
 21
-9.18559
  0
LINE
  8
0
 10
48.6967
 20
-9.18559
 11
63.1856
 21
-5.3033
  0
LINE
  8
0
 10
63.1856
 20
-5.3033
 11
59.3033
 21
9.18559
  0
LINE
  8
0
 10
59.3033
 20
9.18559
 11
44.8144
 21
5.3033
  0
LINE
  8
0
 10
45.1387
 20
-23.2835
 11
52.6387
 21
-36.2739
  0
LINE
  8
0
 10
52.6387
 20
-36.2739
 11
65.6291
 21
-28.7739
  0
LINE
  8
0
 10
65.6291
 20
-28.7739
 11
58.1291
 21
-15.7835
  0
LINE
  8
0
 10
58.1291
 20
-15.7835
 11
45.1387
 21
-23.2835
  0
LINE
  8
0
 10
53.4012
 20
42.8035
 11
57.2835
 21
28.3146
  0
LINE
  8
0
 10
57.2835
 20
28.3146
 11
71.7724
 21
32.1969
  0
LINE
  8
0
 10
71.7724
 20
32.1969
 11
67.8901
 21
46.6858
  0
LINE
  8
0
 10
67.8901
 20
46.6858
 11
53.4012
 21
42.8035
  0
LINE
  8
0
 10
57.8012
 20
26.3828
 11
61.6834
 21
11.8939
  0
LINE
  8
0
 10
61.6834
 20
11.8939
 11
76.1723
 21
15.7762
  0
LINE
  8
0
 10
76.1723
 20
15.7762
 11
72.29
 21
30.2651
  0
LINE
  8
0
 10
72.29
 20
30.2651
 11
57.8012
 21
26.3828
  0
LINE
  8
0
 10
62.2011
 20
9.96204
 11
66.0834
 21
-4.52684
  0
LINE
  8
0
 10
66.0834
 20
-4.52684
 11
80.5723
 21
-0.644558
  0
LINE
  8
0
 10
80.5723
 20
-0.644558
 11
76.69
 21
13.8443
  0
LINE
  8
0
 10
76.69
 20
13.8443
 11
62.2011
 21
9.96204
  0
LINE
  8
0
 10
62.5254
 20
-18.6248
 11
70.0254
 21
-31.6152
  0
LINE
  8
0
 10
70.0254
 20
-31.6152
 11
83.0157
 21
-24.1152
  0
LINE
  8
0
 10
83.0157
 20
-24.1152
 11
75.5157
 21
-11.1248
  0
LINE
  8
0
 10
75.5157
 20
-11.1248
 11
62.5254
 21
-18.6248
  0
LINE
  8
0
 10
70.7879
 20
47.4623
 11
74.6702
 21
32.9734
  0
LINE
  8
0
 10
74.6702
 20
32.9734
 11
89.1591
 21
36.8557
  0
LINE
  8
0
 10
89.1591
 20
36.8557
 11
85.2768
 21
51.3446
  0
LINE
  8
0
 10
85.2768
 20
51.3446
 11
70.7879
 21
47.4623
  0
LINE
  8
0
 10
75.1878
 20
31.0415
 11
79.0701
 21
16.5526
  0
LINE
  8
0
 10
79.0701
 20
16.5526
 11
93.559
 21
20.4349
  0
LINE
  8
0
 10
93.559
 20
20.4349
 11
89.6767
 21
34.9238
  0
LINE
  8
0
 10
89.6767
 20
34.9238
 11
75.1878
 21
31.0415
  0
LINE
  8
0
 10
79.5877
 20
14.6208
 11
83.47
 21
0.131899
  0
LINE
  8
0
 10
83.47
 20
0.131899
 11
97.9589
 21
4.01418
  0
LINE
  8
0
 10
97.9589
 20
4.01418
 11
94.0766
 21
18.5031
  0
LINE
  8
0
 10
94.0766
 20
18.5031
 11
79.5877
 21
14.6208
  0
LINE
  8
0
 10
80.081
 20
-4.60671
 11
83.9633
 21
-19.0956
  0
LINE
  8
0
 10
83.9633
 20
-19.0956
 11
98.4522
 21
-15.2133
  0
LINE
  8
0
 10
98.4522
 20
-15.2133
 11
94.5699
 21
-0.724426
  0
LINE
  8
0
 10
94.5699
 20
-0.724426
 11
80.081
 21
-4.60671
  0
LINE
  8
0
 10
88.1746
 20
52.121
 11
92.0568
 21
37.6321
  0
LINE
  8
0
 10
92.0568
 20
37.6321
 11
106.546
 21
41.5144
  0
LINE
  8
0
 10
106.546
 20
41.5144
 11
102.663
 21
56.0033
  0
LINE
  8
0
 10
102.663
 20
56.0033
 11
88.1746
 21
52.121
  0
LINE
  8
0
 10
92.5745
 20
35.7003
 11
96.4568
 21
21.2114
  0
LINE
  8
0
 10
96.4568
 20
21.2114
 11
110.946
 21
25.0937
  0
LINE
  8
0
 10
110.946
 20
25.0937
 11
107.063
 21
39.5826
  0
LINE
  8
0
 10
107.063
 20
39.5826
 11
92.5745
 21
35.7003
  0
LINE
  8
0
 10
96.9744
 20
19.2795
 11
100.857
 21
4.79064
  0
LINE
  8
0
 10
100.857
 20
4.79064
 11
115.346
 21
8.67293
  0
LINE
  8
0
 10
115.346
 20
8.67293
 11
111.463
 21
23.1618
  0
LINE
  8
0
 10
111.463
 20
23.1618
 11
96.9744
 21
19.2795
  0
LINE
  8
0
 10
107.761
 20
48.5694
 11
111.643
 21
34.0805
  0
LINE
  8
0
 10
111.643
 20
34.0805
 11
126.132
 21
37.9628
  0
LINE
  8
0
 10
126.132
 20
37.9628
 11
122.25
 21
52.4517
  0
LINE
  8
0
 10
122.25
 20
52.4517
 11
107.761
 21
48.5694
  0
LINE
  8
0
 10
112.161
 20
32.1486
 11
116.043
 21
17.6598
  0
LINE
  8
0
 10
116.043
 20
17.6598
 11
130.532
 21
21.542
  0
LINE
  8
0
 10
130.532
 20
21.542
 11
126.65
 21
36.0309
  0
LINE
  8
0
 10
126.65
 20
36.0309
 11
112.161
 21
32.1486
  0
LINE
  8
0
 10
116.561
 20
15.7279
 11
120.443
 21
1.23902
  0
LINE
  8
0
 10
120.443
 20
1.23902
 11
134.932
 21
5.1213
  0
LINE
  8
0
 10
134.932
 20
5.1213
 11
131.05
 21
19.6102
  0
LINE
  8
0
 10
131.05
 20
19.6102
 11
116.561
 21
15.7279
  0
LINE
  8
0
 10
125.148
 20
53.2281
 11
129.03
 21
38.7392
  0
LINE
  8
0
 10
129.03
 20
38.7392
 11
143.519
 21
42.6215
  0
LINE
  8
0
 10
143.519
 20
42.6215
 11
139.637
 21
57.1104
  0
LINE
  8
0
 10
139.637
 20
57.1104
 11
125.148
 21
53.2281
  0
LINE
  8
0
 10
129.548
 20
36.8074
 11
133.43
 21
22.3185
  0
LINE
  8
0
 10
133.43
 20
22.3185
 11
147.919
 21
26.2008
  0
LINE
  8
0
 10
147.919
 20
26.2008
 11
144.037
 21
40.6897
  0
LINE
  8
0
 10
144.037
 20
40.6897
 11
129.548
 21
36.8074
  0
LINE
  8
0
 10
133.948
 20
20.3866
 11
137.83
 21
5.89776
  0
LINE
  8
0
 10
137.83
 20
5.89776
 11
152.319
 21
9.78004
  0
LINE
  8
0
 10
152.319
 20
9.78004
 11
148.437
 21
24.2689
  0
LINE
  8
0
 10
148.437
 20
24.2689
 11
133.948
 21
20.3866
  0
ENDSEC
  0
SECTION
  2
OBJECTS
  0
DICTIONARY
  0
ENDSEC
  0
EOF
