  0
SECTION
  2
BLOCKS
  0
ENDSEC
  0
SECTION
  2
ENTITIES
  0
LINE
  8
0
 10
-134.319
 20
9.78004
 11
-119.83
 21
5.89776
  0
LINE
  8
0
 10
-119.83
 20
5.89776
 11
-115.948
 21
20.3866
  0
LINE
  8
0
 10
-115.948
 20
20.3866
 11
-130.437
 21
24.2689
  0
LINE
  8
0
 10
-130.437
 20
24.2689
 11
-134.319
 21
9.78004
  0
LINE
  8
0
 10
-129.919
 20
26.2008
 11
-115.43
 21
22.3185
  0
LINE
  8
0
 10
-115.43
 20
22.3185
 11
-111.548
 21
36.8074
  0
LINE
  8
0
 10
-111.548
 20
36.8074
 11
-126.037
 21
40.6897
  0
LINE
  8
0
 10
-126.037
 20
40.6897
 11
-129.919
 21
26.2008
  0
LINE
  8
0
 10
-125.519
 20
42.6215
 11
-111.03
 21
38.7392
  0
LINE
  8
0
 10
-111.03
 20
38.7392
 11
-107.148
 21
53.2281
  0
LINE
  8
0
 10
-107.148
 20
53.2281
 11
-121.637
 21
57.1104
  0
LINE
  8
0
 10
-121.637
 20
57.1104
 11
-125.519
 21
42.6215
  0
LINE
  8
0
 10
-116.932
 20
5.1213
 11
-102.443
 21
1.23902
  0
LINE
  8
0
 10
-102.443
 20
1.23902
 11
-98.561
 21
15.7279
  0
LINE
  8
0
 10
-98.561
 20
15.7279
 11
-113.05
 21
19.6102
  0
LINE
  8
0
 10
-113.05
 20
19.6102
 11
-116.932
 21
5.1213
  0
LINE
  8
0
 10
-112.532
 20
21.542
 11
-98.0434
 21
17.6598
  0
LINE
  8
0
 10
-98.0434
 20
17.6598
 11
-94.1611
 21
32.1486
  0
LINE
  8
0
 10
-94.1611
 20
32.1486
 11
-108.65
 21
36.0309
  0
LINE
  8
0
 10
-108.65
 20
36.0309
 11
-112.532
 21
21.542
  0
LINE
  8
0
 10
-108.132
 20
37.9628
 11
-93.6435
 21
34.0805
  0
LINE
  8
0
 10
-93.6435
 20
34.0805
 11
-89.7612
 21
48.5694
  0
LINE
  8
0
 10
-89.7612
 20
48.5694
 11
-104.25
 21
52.4517
  0
LINE
  8
0
 10
-104.25
 20
52.4517
 11
-108.132
 21
37.9628
  0
LINE
  8
0
 10
-97.3456
 20
8.67293
 11
-82.8567
 21
4.79064
  0
LINE
  8
0
 10
-82.8567
 20
4.79064
 11
-78.9744
 21
19.2795
  0
LINE
  8
0
 10
-78.9744
 20
19.2795
 11
-93.4633
 21
23.1618
  0
LINE
  8
0
 10
-93.4633
 20
23.1618
 11
-97.3456
 21
8.67293
  0
LINE
  8
0
 10
-92.9457
 20
25.0937
 11
-78.4568
 21
21.2114
  0
LINE
  8
0
 10
-78.4568
 20
21.2114
 11
-74.5745
 21
35.7003
  0
LINE
  8
0
 10
-74.5745
 20
35.7003
 11
-89.0634
 21
39.5826
  0
LINE
  8
0
 10
-89.0634
 20
39.5826
 11
-92.9457
 21
25.0937
  0
LINE
  8
0
 10
-88.5457
 20
41.5144
 11
-74.0568
 21
37.6321
  0
LINE
  8
0
 10
-74.0568
 20
37.6321
 11
-70.1746
 21
52.121
  0
LINE
  8
0
 10
-70.1746
 20
52.121
 11
-84.6634
 21
56.0033
  0
LINE
  8
0
 10
-84.6634
 20
56.0033
 11
-88.5457
 21
41.5144
  0
LINE
  8
0
 10
-80.4522
 20
-15.2133
 11
-65.9633
 21
-19.0956
  0
LINE
  8
0
 10
-65.9633
 20
-19.0956
 11
-62.081
 21
-4.60671
  0
LINE
  8
0
 10
-62.081
 20
-4.60671
 11
-76.5699
 21
-0.724426
  0
LINE
  8
0
 10
-76.5699
 20
-0.724426
 11
-80.4522
 21
-15.2133
  0
LINE
  8
0
 10
-79.9589
 20
4.01418
 11
-65.47
 21
0.131899
  0
LINE
  8
0
 10
-65.47
 20
0.131899
 11
-61.5877
 21
14.6208
  0
LINE
  8
0
 10
-61.5877
 20
14.6208
 11
-76.0766
 21
18.5031
  0
LINE
  8
0
 10
-76.0766
 20
18.5031
 11
-79.9589
 21
4.01418
  0
LINE
  8
0
 10
-75.559
 20
20.4349
 11
-61.0701
 21
16.5526
  0
LINE
  8
0
 10
-61.0701
 20
16.5526
 11
-57.1878
 21
31.0415
  0
LINE
  8
0
 10
-57.1878
 20
31.0415
 11
-71.6767
 21
34.9238
  0
LINE
  8
0
 10
-71.6767
 20
34.9238
 11
-75.559
 21
20.4349
  0
LINE
  8
0
 10
-71.1591
 20
36.8557
 11
-56.6702
 21
32.9734
  0
LINE
  8
0
 10
-56.6702
 20
32.9734
 11
-52.7879
 21
47.4623
  0
LINE
  8
0
 10
-52.7879
 20
47.4623
 11
-67.2768
 21
51.3446
  0
LINE
  8
0
 10
-67.2768
 20
51.3446
 11
-71.1591
 21
36.8557
  0
LINE
  8
0
 10
-65.0157
 20
-24.1152
 11
-52.0254
 21
-31.6152
  0
LINE
  8
0
 10
-52.0254
 20
-31.6152
 11
-44.5254
 21
-18.6248
  0
LINE
  8
0
 10
-44.5254
 20
-18.6248
 11
-57.5157
 21
-11.1248
  0
LINE
  8
0
 10
-57.5157
 20
-11.1248
 11
-65.0157
 21
-24.1152
  0
LINE
  8
0
 10
-62.5723
 20
-0.644558
 11
-48.0834
 21
-4.52684
  0
LINE
  8
0
 10
-48.0834
 20
-4.52684
 11
-44.2011
 21
9.96204
  0
LINE
  8
0
 10
-44.2011
 20
9.96204
 11
-58.69
 21
13.8443
  0
LINE
  8
0
 10
-58.69
 20
13.8443
 11
-62.5723
 21
-0.644558
  0
LINE
  8
0
 10
-58.1723
 20
15.7762
 11
-43.6834
 21
11.8939
  0
LINE
  8
0
 10
-43.6834
 20
11.8939
 11
-39.8012
 21
26.3828
  0
LINE
  8
0
 10
-39.8012
 20
26.3828
 11
-54.29
 21
30.2651
  0
LINE
  8
0
 10
-54.29
 20
30.2651
 11
-58.1723
 21
15.7762
  0
LINE
  8
0
 10
-53.7724
 20
32.1969
 11
-39.2835
 21
28.3146
  0
LINE
  8
0
 10
-39.2835
 20
28.3146
 11
-35.4012
 21
42.8035
  0
LINE
  8
0
 10
-35.4012
 20
42.8035
 11
-49.8901
 21
46.6858
  0
LINE
  8
0
 10
-49.8901
 20
46.6858
 11
-53.7724
 21
32.1969
  0
LINE
  8
0
 10
-47.6291
 20
-28.7739
 11
-34.6387
 21
-36.2739
  0
LINE
  8
0
 10
-34.6387
 20
-36.2739
 11
-27.1387
 21
-23.2835
  0
LINE
  8
0
 10
-27.1387
 20
-23.2835
 11
-40.1291
 21
-15.7835
  0
LINE
  8
0
 10
-40.1291
 20
-15.7835
 11
-47.6291
 21
-28.7739
  0
LINE
  8
0
 10
-45.1856
 20
-5.3033
 11
-30.6967
 21
-9.18559
  0
LINE
  8
0
 10
-30.6967
 20
-9.18559
 11
-26.8144
 21
5.3033
  0
LINE
  8
0
 10
-26.8144
 20
5.3033
 11
-41.3033
 21
9.18559
  0
LINE
  8
0
 10
-41.3033
 20
9.18559
 11
-45.1856
 21
-5.3033
  0
LINE
  8
0
 10
-40.7857
 20
11.1174
 11
-26.2968
 21
7.23515
  0
LINE
  8
0
 10
-26.2968
 20
7.23515
 11
-22.4145
 21
21.724
  0
LINE
  8
0
 10
-22.4145
 20
21.724
 11
-36.9034
 21
25.6063
  0
LINE
  8
0
 10
-36.9034
 20
25.6063
 11
-40.7857
 21
11.1174
  0
LINE
  8
0
 10
-36.3857
 20
27.5382
 11
-21.8969
 21
23.6559
  0
LINE
  8
0
 10
-21.8969
 20
23.6559
 11
-18.0146
 21
38.1448
  0
LINE
  8
0
 10
-18.0146
 20
38.1448
 11
-32.5035
 21
42.0271
  0
LINE
  8
0
 10
-32.5035
 20
42.0271
 11
-36.3857
 21
27.5382
  0
LINE
  8
0
 10
18.0146
 20
38.1448
 11
21.8969
 21
23.6559
  0
LINE
  8
0
 10
21.8969
 20
23.6559
 11
36.3857
 21
27.5382
  0
LINE
  8
0
 10
36.3857
 20
27.5382
 11
32.5035
 21
42.0271
  0
LINE
  8
0
 10
32.5035
 20
42.0271
 11
18.0146
 21
38.1448
  0
LINE
  8
0
 10
22.4145
 20
21.724
 11
26.2968
 21
7.23515
  0
LINE
  8
0
 10
26.2968
 20
7.23515
 11
40.7857
 21
11.1174
  0
LINE
  8
0
 10
40.7857
 20
11.1174
 11
36.9034
 21
25.6063
  0
LINE
  8
0
 10
36.9034
 20
25.6063
 11
22.4145
 21
21.724
  0
LINE
  8
0
 10
26.8144
 20
5.3033
 11
30.6967
 21
-9.18559
  0
LINE
  8
0
 10
30.6967
 20
-9.18559
 11
45.1856
 21
-5.3033
  0
LINE
  8
0
 10
45.1856
 20
-5.3033
 11
41.3033
 21
9.18559
  0
LINE
  8
0
 10
41.3033
 20
9.18559
 11
26.8144
 21
5.3033
  0
LINE
  8
0
 10
27.1387
 20
-23.2835
 11
34.6387
 21
-36.2739
  0
LINE
  8
0
 10
34.6387
 20
-36.2739
 11
47.6291
 21
-28.7739
  0
LINE
  8
0
 10
47.6291
 20
-28.7739
 11
40.1291
 21
-15.7835
  0
LINE
  8
0
 10
40.1291
 20
-15.7835
 11
27.1387
 21
-23.2835
  0
LINE
  8
0
 10
35.4012
 20
42.8035
 11
39.2835
 21
28.3146
  0
LINE
  8
0
 10
39.2835
 20
28.3146
 11
53.7724
 21
32.1969
  0
LINE
  8
0
 10
53.7724
 20
32.1969
 11
49.8901
 21
46.6858
  0
LINE
  8
0
 10
49.8901
 20
46.6858
 11
35.4012
 21
42.8035
  0
LINE
  8
0
 10
39.8012
 20
26.3828
 11
43.6834
 21
11.8939
  0
LINE
  8
0
 10
43.6834
 20
11.8939
 11
58.1723
 21
15.7762
  0
LINE
  8
0
 10
58.1723
 20
15.7762
 11
54.29
 21
30.2651
  0
LINE
  8
0
 10
54.29
 20
30.2651
 11
39.8012
 21
26.3828
  0
LINE
  8
0
 10
44.2011
 20
9.96204
 11
48.0834
 21
-4.52684
  0
LINE
  8
0
 10
48.0834
 20
-4.52684
 11
62.5723
 21
-0.644558
  0
LINE
  8
0
 10
62.5723
 20
-0.644558
 11
58.69
 21
13.8443
  0
LINE
  8
0
 10
58.69
 20
13.8443
 11
44.2011
 21
9.96204
  0
LINE
  8
0
 10
44.5254
 20
-18.6248
 11
52.0254
 21
-31.6152
  0
LINE
  8
0
 10
52.0254
 20
-31.6152
 11
65.0157
 21
-24.1152
  0
LINE
  8
0
 10
65.0157
 20
-24.1152
 11
57.5157
 21
-11.1248
  0
LINE
  8
0
 10
57.5157
 20
-11.1248
 11
44.5254
 21
-18.6248
  0
LINE
  8
0
 10
52.7879
 20
47.4623
 11
56.6702
 21
32.9734
  0
LINE
  8
0
 10
56.6702
 20
32.9734
 11
71.1591
 21
36.8557
  0
LINE
  8
0
 10
71.1591
 20
36.8557
 11
67.2768
 21
51.3446
  0
LINE
  8
0
 10
67.2768
 20
51.3446
 11
52.7879
 21
47.4623
  0
LINE
  8
0
 10
57.1878
 20
31.0415
 11
61.0701
 21
16.5526
  0
LINE
  8
0
 10
61.0701
 20
16.5526
 11
75.559
 21
20.4349
  0
LINE
  8
0
 10
75.559
 20
20.4349
 11
71.6767
 21
34.9238
  0
LINE
  8
0
 10
71.6767
 20
34.9238
 11
57.1878
 21
31.0415
  0
LINE
  8
0
 10
61.5877
 20
14.6208
 11
65.47
 21
0.131899
  0
LINE
  8
0
 10
65.47
 20
0.131899
 11
79.9589
 21
4.01418
  0
LINE
  8
0
 10
79.9589
 20
4.01418
 11
76.0766
 21
18.5031
  0
LINE
  8
0
 10
76.0766
 20
18.5031
 11
61.5877
 21
14.6208
  0
LINE
  8
0
 10
62.081
 20
-4.60671
 11
65.9633
 21
-19.0956
  0
LINE
  8
0
 10
65.9633
 20
-19.0956
 11
80.4522
 21
-15.2133
  0
LINE
  8
0
 10
80.4522
 20
-15.2133
 11
76.5699
 21
-0.724426
  0
LINE
  8
0
 10
76.5699
 20
-0.724426
 11
62.081
 21
-4.60671
  0
LINE
  8
0
 10
70.1746
 20
52.121
 11
74.0568
 21
37.6321
  0
LINE
  8
0
 10
74.0568
 20
37.6321
 11
88.5457
 21
41.5144
  0
LINE
  8
0
 10
88.5457
 20
41.5144
 11
84.6634
 21
56.0033
  0
LINE
  8
0
 10
84.6634
 20
56.0033
 11
70.1746
 21
52.121
  0
LINE
  8
0
 10
74.5745
 20
35.7003
 11
78.4568
 21
21.2114
  0
LINE
  8
0
 10
78.4568
 20
21.2114
 11
92.9457
 21
25.0937
  0
LINE
  8
0
 10
92.9457
 20
25.0937
 11
89.0634
 21
39.5826
  0
LINE
  8
0
 10
89.0634
 20
39.5826
 11
74.5745
 21
35.7003
  0
LINE
  8
0
 10
78.9744
 20
19.2795
 11
82.8567
 21
4.79064
  0
LINE
  8
0
 10
82.8567
 20
4.79064
 11
97.3456
 21
8.67293
  0
LINE
  8
0
 10
97.3456
 20
8.67293
 11
93.4633
 21
23.1618
  0
LINE
  8
0
 10
93.4633
 20
23.1618
 11
78.9744
 21
19.2795
  0
LINE
  8
0
 10
89.7612
 20
48.5694
 11
93.6435
 21
34.0805
  0
LINE
  8
0
 10
93.6435
 20
34.0805
 11
108.132
 21
37.9628
  0
LINE
  8
0
 10
108.132
 20
37.9628
 11
104.25
 21
52.4517
  0
LINE
  8
0
 10
104.25
 20
52.4517
 11
89.7612
 21
48.5694
  0
LINE
  8
0
 10
94.1611
 20
32.1486
 11
98.0434
 21
17.6598
  0
LINE
  8
0
 10
98.0434
 20
17.6598
 11
112.532
 21
21.542
  0
LINE
  8
0
 10
112.532
 20
21.542
 11
108.65
 21
36.0309
  0
LINE
  8
0
 10
108.65
 20
36.0309
 11
94.1611
 21
32.1486
  0
LINE
  8
0
 10
98.561
 20
15.7279
 11
102.443
 21
1.23902
  0
LINE
  8
0
 10
102.443
 20
1.23902
 11
116.932
 21
5.1213
  0
LINE
  8
0
 10
116.932
 20
5.1213
 11
113.05
 21
19.6102
  0
LINE
  8
0
 10
113.05
 20
19.6102
 11
98.561
 21
15.7279
  0
LINE
  8
0
 10
107.148
 20
53.2281
 11
111.03
 21
38.7392
  0
LINE
  8
0
 10
111.03
 20
38.7392
 11
125.519
 21
42.6215
  0
LINE
  8
0
 10
125.519
 20
42.6215
 11
121.637
 21
57.1104
  0
LINE
  8
0
 10
121.637
 20
57.1104
 11
107.148
 21
53.2281
  0
LINE
  8
0
 10
111.548
 20
36.8074
 11
115.43
 21
22.3185
  0
LINE
  8
0
 10
115.43
 20
22.3185
 11
129.919
 21
26.2008
  0
LINE
  8
0
 10
129.919
 20
26.2008
 11
126.037
 21
40.6897
  0
LINE
  8
0
 10
126.037
 20
40.6897
 11
111.548
 21
36.8074
  0
LINE
  8
0
 10
115.948
 20
20.3866
 11
119.83
 21
5.89776
  0
LINE
  8
0
 10
119.83
 20
5.89776
 11
134.319
 21
9.78004
  0
LINE
  8
0
 10
134.319
 20
9.78004
 11
130.437
 21
24.2689
  0
LINE
  8
0
 10
130.437
 20
24.2689
 11
115.948
 21
20.3866
  0
ENDSEC
  0
SECTION
  2
OBJECTS
  0
DICTIONARY
  0
ENDSEC
  0
EOF
